<svg width="296" height="45" viewBox="0 0 296 45" fill="none" xmlns="http://www.w3.org/2000/svg">
<path d="M27 30.25H23.8V16.25C23.8 15.9848 23.8674 15.7304 23.9875 15.5429C24.1075 15.3554 24.2703 15.25 24.44 15.25H26.36C26.5297 15.25 26.6925 15.3554 26.8125 15.5429C26.9326 15.7304 27 15.9848 27 16.25V30.25ZM20.6 30.25H17.4V19.25C17.4 18.9848 17.4674 18.7304 17.5875 18.5429C17.7075 18.3554 17.8703 18.25 18.04 18.25H19.96C20.1297 18.25 20.2925 18.3554 20.4125 18.5429C20.5326 18.7304 20.6 18.9848 20.6 19.25V30.25ZM14.2 30.25H11V22.25C11 21.9848 11.0674 21.7304 11.1875 21.5429C11.3075 21.3554 11.4703 21.25 11.64 21.25H13.56C13.7297 21.25 13.8925 21.3554 14.0125 21.5429C14.1326 21.7304 14.2 21.9848 14.2 22.25V30.25Z" stroke="white" stroke-linecap="round" stroke-linejoin="round"/>
<path d="M39.404 28.376C39.164 28.376 38.972 28.322 38.828 28.214C38.684 28.106 38.6 27.962 38.576 27.782C38.552 27.602 38.588 27.398 38.684 27.17L43.562 16.226C43.682 15.938 43.832 15.734 44.012 15.614C44.204 15.494 44.414 15.434 44.642 15.434C44.858 15.434 45.056 15.494 45.236 15.614C45.428 15.734 45.584 15.938 45.704 16.226L50.582 27.17C50.69 27.398 50.732 27.608 50.708 27.8C50.684 27.98 50.606 28.124 50.474 28.232C50.342 28.328 50.156 28.376 49.916 28.376C49.652 28.376 49.442 28.31 49.286 28.178C49.13 28.046 48.992 27.842 48.872 27.566L47.612 24.65L48.458 25.154H40.79L41.618 24.65L40.376 27.566C40.256 27.854 40.124 28.064 39.98 28.196C39.836 28.316 39.644 28.376 39.404 28.376ZM44.606 17.63L41.888 24.074L41.438 23.642H47.792L47.378 24.074L44.642 17.63H44.606ZM53.4319 28.376C53.1439 28.376 52.9219 28.298 52.7659 28.142C52.6099 27.974 52.5319 27.746 52.5319 27.458V20.258C52.5319 19.958 52.6099 19.73 52.7659 19.574C52.9219 19.418 53.1379 19.34 53.4139 19.34C53.7019 19.34 53.9179 19.418 54.0619 19.574C54.2179 19.73 54.2959 19.958 54.2959 20.258V21.662L54.0979 21.338C54.3619 20.666 54.7759 20.162 55.3399 19.826C55.9039 19.478 56.5519 19.304 57.2839 19.304C57.9799 19.304 58.5559 19.436 59.0119 19.7C59.4799 19.952 59.8279 20.342 60.0559 20.87C60.2839 21.386 60.3979 22.04 60.3979 22.832V27.458C60.3979 27.746 60.3199 27.974 60.1639 28.142C60.0079 28.298 59.7859 28.376 59.4979 28.376C59.1979 28.376 58.9699 28.298 58.8139 28.142C58.6579 27.974 58.5799 27.746 58.5799 27.458V22.94C58.5799 22.184 58.4299 21.632 58.1299 21.284C57.8419 20.936 57.3859 20.762 56.7619 20.762C56.0299 20.762 55.4419 20.99 54.9979 21.446C54.5659 21.902 54.3499 22.514 54.3499 23.282V27.458C54.3499 28.07 54.0439 28.376 53.4319 28.376ZM65.711 28.412C65.099 28.412 64.547 28.292 64.055 28.052C63.575 27.812 63.197 27.488 62.921 27.08C62.645 26.672 62.507 26.21 62.507 25.694C62.507 25.046 62.669 24.536 62.993 24.164C63.329 23.78 63.875 23.51 64.631 23.354C65.399 23.186 66.431 23.102 67.727 23.102H68.573V24.218H67.745C66.881 24.218 66.197 24.26 65.693 24.344C65.189 24.428 64.829 24.572 64.613 24.776C64.409 24.968 64.307 25.238 64.307 25.586C64.307 26.042 64.463 26.414 64.775 26.702C65.087 26.978 65.519 27.116 66.071 27.116C66.515 27.116 66.905 27.014 67.241 26.81C67.577 26.594 67.841 26.306 68.033 25.946C68.237 25.586 68.339 25.172 68.339 24.704V22.634C68.339 21.95 68.195 21.458 67.907 21.158C67.619 20.858 67.145 20.708 66.485 20.708C66.101 20.708 65.699 20.756 65.279 20.852C64.871 20.948 64.445 21.11 64.001 21.338C63.797 21.434 63.623 21.464 63.479 21.428C63.335 21.392 63.221 21.314 63.137 21.194C63.053 21.062 63.005 20.924 62.993 20.78C62.993 20.624 63.029 20.474 63.101 20.33C63.185 20.186 63.323 20.078 63.515 20.006C64.043 19.754 64.565 19.574 65.081 19.466C65.597 19.358 66.083 19.304 66.539 19.304C67.343 19.304 68.003 19.43 68.519 19.682C69.047 19.934 69.437 20.318 69.689 20.834C69.941 21.35 70.067 22.016 70.067 22.832V27.458C70.067 27.746 69.995 27.974 69.851 28.142C69.707 28.298 69.497 28.376 69.221 28.376C68.957 28.376 68.747 28.298 68.591 28.142C68.435 27.974 68.357 27.746 68.357 27.458V26.288H68.519C68.423 26.732 68.243 27.116 67.979 27.44C67.727 27.752 67.409 27.992 67.025 28.16C66.641 28.328 66.203 28.412 65.711 28.412ZM67.277 18.206C67.181 18.35 67.061 18.434 66.917 18.458C66.785 18.482 66.653 18.458 66.521 18.386C66.389 18.314 66.293 18.212 66.233 18.08C66.185 17.948 66.197 17.804 66.269 17.648L67.727 14.822C67.823 14.63 67.943 14.504 68.087 14.444C68.243 14.384 68.399 14.378 68.555 14.426C68.723 14.462 68.861 14.534 68.969 14.642C69.089 14.75 69.161 14.888 69.185 15.056C69.209 15.212 69.167 15.368 69.059 15.524L67.277 18.206ZM75.397 28.412C74.461 28.412 73.753 28.142 73.273 27.602C72.805 27.05 72.571 26.258 72.571 25.226V16.352C72.571 16.052 72.649 15.824 72.805 15.668C72.961 15.512 73.183 15.434 73.471 15.434C73.759 15.434 73.981 15.512 74.137 15.668C74.305 15.824 74.389 16.052 74.389 16.352V25.118C74.389 25.718 74.509 26.168 74.749 26.468C75.001 26.756 75.361 26.9 75.829 26.9C75.937 26.9 76.033 26.9 76.117 26.9C76.201 26.888 76.285 26.876 76.369 26.864C76.513 26.852 76.615 26.894 76.675 26.99C76.735 27.074 76.765 27.254 76.765 27.53C76.765 27.782 76.711 27.98 76.603 28.124C76.495 28.256 76.321 28.34 76.081 28.376C75.973 28.388 75.859 28.394 75.739 28.394C75.619 28.406 75.505 28.412 75.397 28.412ZM78.9729 28.358C78.6849 28.358 78.4629 28.274 78.3069 28.106C78.1509 27.926 78.0729 27.68 78.0729 27.368V20.348C78.0729 20.036 78.1509 19.796 78.3069 19.628C78.4629 19.46 78.6849 19.376 78.9729 19.376C79.2609 19.376 79.4829 19.46 79.6389 19.628C79.8069 19.796 79.8909 20.036 79.8909 20.348V27.368C79.8909 27.68 79.8129 27.926 79.6569 28.106C79.5009 28.274 79.2729 28.358 78.9729 28.358ZM78.9729 17.504C78.6129 17.504 78.3309 17.414 78.1269 17.234C77.9349 17.054 77.8389 16.802 77.8389 16.478C77.8389 16.142 77.9349 15.89 78.1269 15.722C78.3309 15.542 78.6129 15.452 78.9729 15.452C79.3329 15.452 79.6089 15.542 79.8009 15.722C80.0049 15.89 80.1069 16.142 80.1069 16.478C80.1069 16.802 80.0049 17.054 79.8009 17.234C79.6089 17.414 79.3329 17.504 78.9729 17.504ZM85.5279 28.412C84.9999 28.412 84.4539 28.352 83.8899 28.232C83.3379 28.112 82.8279 27.908 82.3599 27.62C82.2039 27.512 82.0959 27.392 82.0359 27.26C81.9759 27.128 81.9519 26.996 81.9639 26.864C81.9879 26.72 82.0419 26.6 82.1259 26.504C82.2219 26.396 82.3359 26.33 82.4679 26.306C82.6119 26.282 82.7619 26.312 82.9179 26.396C83.3859 26.66 83.8359 26.846 84.2679 26.954C84.6999 27.05 85.1259 27.098 85.5459 27.098C86.1819 27.098 86.6619 26.984 86.9859 26.756C87.3099 26.528 87.4719 26.222 87.4719 25.838C87.4719 25.526 87.3639 25.286 87.1479 25.118C86.9319 24.938 86.6079 24.8 86.1759 24.704L84.4659 24.362C83.7219 24.206 83.1579 23.93 82.7739 23.534C82.3899 23.138 82.1979 22.634 82.1979 22.022C82.1979 21.47 82.3479 20.99 82.6479 20.582C82.9479 20.174 83.3679 19.862 83.9079 19.646C84.4479 19.418 85.0719 19.304 85.7799 19.304C86.3079 19.304 86.8059 19.37 87.2739 19.502C87.7419 19.634 88.1739 19.832 88.5699 20.096C88.7259 20.18 88.8279 20.294 88.8759 20.438C88.9239 20.57 88.9299 20.702 88.8939 20.834C88.8699 20.966 88.8099 21.086 88.7139 21.194C88.6179 21.29 88.4979 21.35 88.3539 21.374C88.2219 21.386 88.0719 21.35 87.9039 21.266C87.5439 21.038 87.1839 20.876 86.8239 20.78C86.4759 20.684 86.1279 20.636 85.7799 20.636C85.1439 20.636 84.6639 20.756 84.3399 20.996C84.0279 21.224 83.8719 21.536 83.8719 21.932C83.8719 22.232 83.9679 22.478 84.1599 22.67C84.3519 22.862 84.6519 23 85.0599 23.084L86.7699 23.426C87.5499 23.582 88.1379 23.846 88.5339 24.218C88.9419 24.59 89.1459 25.094 89.1459 25.73C89.1459 26.558 88.8159 27.212 88.1559 27.692C87.4959 28.172 86.6199 28.412 85.5279 28.412ZM92.0686 28.358C91.7806 28.358 91.5586 28.274 91.4026 28.106C91.2466 27.926 91.1686 27.68 91.1686 27.368V20.348C91.1686 20.036 91.2466 19.796 91.4026 19.628C91.5586 19.46 91.7806 19.376 92.0686 19.376C92.3566 19.376 92.5786 19.46 92.7346 19.628C92.9026 19.796 92.9866 20.036 92.9866 20.348V27.368C92.9866 27.68 92.9086 27.926 92.7526 28.106C92.5966 28.274 92.3686 28.358 92.0686 28.358ZM92.0686 17.504C91.7086 17.504 91.4266 17.414 91.2226 17.234C91.0306 17.054 90.9346 16.802 90.9346 16.478C90.9346 16.142 91.0306 15.89 91.2226 15.722C91.4266 15.542 91.7086 15.452 92.0686 15.452C92.4286 15.452 92.7046 15.542 92.8966 15.722C93.1006 15.89 93.2026 16.142 93.2026 16.478C93.2026 16.802 93.1006 17.054 92.8966 17.234C92.7046 17.414 92.4286 17.504 92.0686 17.504ZM98.6236 28.412C98.0956 28.412 97.5496 28.352 96.9856 28.232C96.4336 28.112 95.9236 27.908 95.4556 27.62C95.2996 27.512 95.1916 27.392 95.1316 27.26C95.0716 27.128 95.0476 26.996 95.0596 26.864C95.0836 26.72 95.1376 26.6 95.2216 26.504C95.3176 26.396 95.4316 26.33 95.5636 26.306C95.7076 26.282 95.8576 26.312 96.0136 26.396C96.4816 26.66 96.9316 26.846 97.3636 26.954C97.7956 27.05 98.2216 27.098 98.6416 27.098C99.2776 27.098 99.7576 26.984 100.082 26.756C100.406 26.528 100.568 26.222 100.568 25.838C100.568 25.526 100.46 25.286 100.244 25.118C100.028 24.938 99.7036 24.8 99.2716 24.704L97.5616 24.362C96.8176 24.206 96.2536 23.93 95.8696 23.534C95.4856 23.138 95.2936 22.634 95.2936 22.022C95.2936 21.47 95.4436 20.99 95.7436 20.582C96.0436 20.174 96.4636 19.862 97.0036 19.646C97.5436 19.418 98.1676 19.304 98.8756 19.304C99.4036 19.304 99.9016 19.37 100.37 19.502C100.838 19.634 101.27 19.832 101.666 20.096C101.822 20.18 101.924 20.294 101.972 20.438C102.02 20.57 102.026 20.702 101.99 20.834C101.966 20.966 101.906 21.086 101.81 21.194C101.714 21.29 101.594 21.35 101.45 21.374C101.318 21.386 101.168 21.35 101 21.266C100.64 21.038 100.28 20.876 99.9196 20.78C99.5716 20.684 99.2236 20.636 98.8756 20.636C98.2396 20.636 97.7596 20.756 97.4356 20.996C97.1236 21.224 96.9676 21.536 96.9676 21.932C96.9676 22.232 97.0636 22.478 97.2556 22.67C97.4476 22.862 97.7476 23 98.1556 23.084L99.8656 23.426C100.646 23.582 101.234 23.846 101.63 24.218C102.038 24.59 102.242 25.094 102.242 25.73C102.242 26.558 101.912 27.212 101.252 27.692C100.592 28.172 99.7156 28.412 98.6236 28.412Z" fill="white"/>
</svg>
