<svg width="44" height="39" viewBox="0 0 44 39" fill="none" xmlns="http://www.w3.org/2000/svg">
<path d="M30 27.25H26.8V13.25C26.8 12.9848 26.8674 12.7304 26.9875 12.5429C27.1075 12.3554 27.2703 12.25 27.44 12.25H29.36C29.5297 12.25 29.6925 12.3554 29.8125 12.5429C29.9326 12.7304 30 12.9848 30 13.25V27.25ZM23.6 27.25H20.4V16.25C20.4 15.9848 20.4674 15.7304 20.5875 15.5429C20.7075 15.3554 20.8703 15.25 21.04 15.25H22.96C23.1297 15.25 23.2925 15.3554 23.4125 15.5429C23.5326 15.7304 23.6 15.9848 23.6 16.25V27.25ZM17.2 27.25H14V19.25C14 18.9848 14.0674 18.7304 14.1875 18.5429C14.3075 18.3554 14.4703 18.25 14.64 18.25H16.56C16.7297 18.25 16.8925 18.3554 17.0125 18.5429C17.1326 18.7304 17.2 18.9848 17.2 19.25V27.25Z" stroke="white" stroke-linecap="round" stroke-linejoin="round"/>
</svg>
