<svg width="18" height="17" viewBox="0 0 18 17" fill="none" xmlns="http://www.w3.org/2000/svg">
<path d="M17 16.25H13.8V2.25C13.8 1.98478 13.8674 1.73043 13.9875 1.54289C14.1075 1.35536 14.2703 1.25 14.44 1.25H16.36C16.5297 1.25 16.6925 1.35536 16.8125 1.54289C16.9326 1.73043 17 1.98478 17 2.25V16.25ZM10.6 16.25H7.4V5.25C7.4 4.98478 7.46743 4.73043 7.58745 4.54289C7.70748 4.35536 7.87026 4.25 8.04 4.25H9.96C10.1297 4.25 10.2925 4.35536 10.4125 4.54289C10.5326 4.73043 10.6 4.98478 10.6 5.25V16.25ZM4.2 16.25H1V8.25C1 7.98478 1.06743 7.73043 1.18745 7.54289C1.30747 7.35536 1.47026 7.25 1.64 7.25H3.56C3.72974 7.25 3.89253 7.35536 4.01255 7.54289C4.13257 7.73043 4.2 7.98478 4.2 8.25V16.25Z" stroke="white" stroke-linecap="round" stroke-linejoin="round"/>
</svg>
