<svg width="44" height="45" viewBox="0 0 44 45" fill="none" xmlns="http://www.w3.org/2000/svg">
<path d="M31.25 22.25H18.895M14.534 22.25H12.75M14.534 22.25C14.534 21.6718 14.7637 21.1173 15.1725 20.7085C15.5813 20.2997 16.1358 20.07 16.714 20.07C17.2922 20.07 17.8467 20.2997 18.2555 20.7085C18.6643 21.1173 18.894 21.6718 18.894 22.25C18.894 22.8282 18.6643 23.3827 18.2555 23.7915C17.8467 24.2003 17.2922 24.43 16.714 24.43C16.1358 24.43 15.5813 24.2003 15.1725 23.7915C14.7637 23.3827 14.534 22.8282 14.534 22.25ZM31.25 28.857H25.502M25.502 28.857C25.502 29.4353 25.2718 29.9904 24.8628 30.3994C24.4539 30.8083 23.8993 31.038 23.321 31.038C22.7428 31.038 22.1883 30.8073 21.7795 30.3985C21.3707 29.9897 21.141 29.4352 21.141 28.857M25.502 28.857C25.502 28.2787 25.2718 27.7246 24.8628 27.3157C24.4539 26.9067 23.8993 26.677 23.321 26.677C22.7428 26.677 22.1883 26.9067 21.7795 27.3155C21.3707 27.7243 21.141 28.2788 21.141 28.857M21.141 28.857H12.75M31.25 15.643H28.145M23.784 15.643H12.75M23.784 15.643C23.784 15.0648 24.0137 14.5103 24.4225 14.1015C24.8313 13.6927 25.3858 13.463 25.964 13.463C26.2503 13.463 26.5338 13.5194 26.7983 13.629C27.0627 13.7385 27.3031 13.8991 27.5055 14.1015C27.7079 14.304 27.8685 14.5443 27.9781 14.8088C28.0876 15.0733 28.144 15.3567 28.144 15.643C28.144 15.9293 28.0876 16.2128 27.9781 16.4773C27.8685 16.7418 27.7079 16.9821 27.5055 17.1845C27.3031 17.3869 27.0627 17.5475 26.7983 17.6571C26.5338 17.7666 26.2503 17.823 25.964 17.823C25.3858 17.823 24.8313 17.5933 24.4225 17.1845C24.0137 16.7757 23.784 16.2212 23.784 15.643Z" stroke="white" stroke-width="1.5" stroke-miterlimit="10" stroke-linecap="round"/>
</svg>
