<svg width="296" height="45" viewBox="0 0 296 45" fill="none" xmlns="http://www.w3.org/2000/svg">
<path d="M31.25 22.25H18.895M14.534 22.25H12.75M14.534 22.25C14.534 21.6718 14.7637 21.1173 15.1725 20.7085C15.5813 20.2997 16.1358 20.07 16.714 20.07C17.2922 20.07 17.8467 20.2997 18.2555 20.7085C18.6643 21.1173 18.894 21.6718 18.894 22.25C18.894 22.8282 18.6643 23.3827 18.2555 23.7915C17.8467 24.2003 17.2922 24.43 16.714 24.43C16.1358 24.43 15.5813 24.2003 15.1725 23.7915C14.7637 23.3827 14.534 22.8282 14.534 22.25ZM31.25 28.857H25.502M25.502 28.857C25.502 29.4353 25.2718 29.9904 24.8628 30.3994C24.4539 30.8083 23.8993 31.038 23.321 31.038C22.7428 31.038 22.1883 30.8073 21.7795 30.3985C21.3707 29.9897 21.141 29.4352 21.141 28.857M25.502 28.857C25.502 28.2787 25.2718 27.7246 24.8628 27.3157C24.4539 26.9067 23.8993 26.677 23.321 26.677C22.7428 26.677 22.1883 26.9067 21.7795 27.3155C21.3707 27.7243 21.141 28.2788 21.141 28.857M21.141 28.857H12.75M31.25 15.643H28.145M23.784 15.643H12.75M23.784 15.643C23.784 15.0648 24.0137 14.5103 24.4225 14.1015C24.8313 13.6927 25.3858 13.463 25.964 13.463C26.2503 13.463 26.5338 13.5194 26.7983 13.629C27.0627 13.7385 27.3031 13.8991 27.5055 14.1015C27.7079 14.304 27.8685 14.5443 27.9781 14.8088C28.0876 15.0733 28.144 15.3567 28.144 15.643C28.144 15.9293 28.0876 16.2128 27.9781 16.4773C27.8685 16.7418 27.7079 16.9821 27.5055 17.1845C27.3031 17.3869 27.0627 17.5475 26.7983 17.6571C26.5338 17.7666 26.2503 17.823 25.964 17.823C25.3858 17.823 24.8313 17.5933 24.4225 17.1845C24.0137 16.7757 23.784 16.2212 23.784 15.643Z" stroke="white" stroke-width="1.5" stroke-miterlimit="10" stroke-linecap="round"/>
<path d="M51.164 28.412C49.88 28.412 48.782 28.148 47.87 27.62C46.958 27.092 46.256 26.342 45.764 25.37C45.284 24.386 45.044 23.228 45.044 21.896C45.044 20.9 45.182 20.006 45.458 19.214C45.734 18.41 46.13 17.726 46.646 17.162C47.174 16.586 47.816 16.148 48.572 15.848C49.34 15.548 50.204 15.398 51.164 15.398C51.872 15.398 52.55 15.494 53.198 15.686C53.858 15.878 54.428 16.154 54.908 16.514C55.112 16.646 55.244 16.808 55.304 17C55.376 17.18 55.388 17.354 55.34 17.522C55.304 17.69 55.226 17.834 55.106 17.954C54.986 18.062 54.83 18.122 54.638 18.134C54.458 18.146 54.26 18.08 54.044 17.936C53.648 17.636 53.21 17.414 52.73 17.27C52.25 17.126 51.746 17.054 51.218 17.054C50.306 17.054 49.538 17.246 48.914 17.63C48.29 18.002 47.816 18.548 47.492 19.268C47.168 19.988 47.006 20.864 47.006 21.896C47.006 22.928 47.168 23.81 47.492 24.542C47.816 25.262 48.29 25.814 48.914 26.198C49.538 26.57 50.306 26.756 51.218 26.756C51.746 26.756 52.25 26.684 52.73 26.54C53.222 26.384 53.684 26.156 54.116 25.856C54.332 25.724 54.524 25.664 54.692 25.676C54.872 25.688 55.022 25.748 55.142 25.856C55.262 25.964 55.34 26.102 55.376 26.27C55.424 26.426 55.418 26.594 55.358 26.774C55.31 26.942 55.196 27.086 55.016 27.206C54.524 27.602 53.942 27.902 53.27 28.106C52.598 28.31 51.896 28.412 51.164 28.412ZM60.6253 28.412C59.7373 28.412 58.9693 28.226 58.3213 27.854C57.6853 27.482 57.1873 26.954 56.8273 26.27C56.4673 25.586 56.2873 24.782 56.2873 23.858C56.2873 23.15 56.3893 22.52 56.5933 21.968C56.7973 21.416 57.0853 20.942 57.4573 20.546C57.8413 20.138 58.2973 19.832 58.8253 19.628C59.3653 19.412 59.9653 19.304 60.6253 19.304C61.5013 19.304 62.2573 19.49 62.8933 19.862C63.5413 20.234 64.0453 20.762 64.4053 21.446C64.7653 22.118 64.9453 22.922 64.9453 23.858C64.9453 24.554 64.8433 25.184 64.6393 25.748C64.4353 26.312 64.1413 26.792 63.7573 27.188C63.3853 27.584 62.9293 27.89 62.3893 28.106C61.8613 28.31 61.2733 28.412 60.6253 28.412ZM60.6253 27.008C61.1173 27.008 61.5493 26.888 61.9213 26.648C62.2933 26.408 62.5813 26.054 62.7853 25.586C63.0013 25.118 63.1093 24.542 63.1093 23.858C63.1093 22.826 62.8813 22.046 62.4253 21.518C61.9693 20.99 61.3693 20.726 60.6253 20.726C60.1213 20.726 59.6833 20.846 59.3113 21.086C58.9393 21.314 58.6453 21.662 58.4293 22.13C58.2253 22.598 58.1233 23.174 58.1233 23.858C58.1233 24.878 58.3513 25.658 58.8073 26.198C59.2633 26.738 59.8693 27.008 60.6253 27.008ZM67.887 28.376C67.599 28.376 67.377 28.298 67.221 28.142C67.065 27.974 66.987 27.746 66.987 27.458V20.258C66.987 19.958 67.065 19.73 67.221 19.574C67.377 19.418 67.593 19.34 67.869 19.34C68.157 19.34 68.373 19.418 68.517 19.574C68.673 19.73 68.751 19.958 68.751 20.258V21.662L68.553 21.338C68.817 20.666 69.231 20.162 69.795 19.826C70.359 19.478 71.007 19.304 71.739 19.304C72.435 19.304 73.011 19.436 73.467 19.7C73.935 19.952 74.283 20.342 74.511 20.87C74.739 21.386 74.853 22.04 74.853 22.832V27.458C74.853 27.746 74.775 27.974 74.619 28.142C74.463 28.298 74.241 28.376 73.953 28.376C73.653 28.376 73.425 28.298 73.269 28.142C73.113 27.974 73.035 27.746 73.035 27.458V22.94C73.035 22.184 72.885 21.632 72.585 21.284C72.297 20.936 71.841 20.762 71.217 20.762C70.485 20.762 69.897 20.99 69.453 21.446C69.021 21.902 68.805 22.514 68.805 23.282V27.458C68.805 28.07 68.499 28.376 67.887 28.376ZM78.7981 28.376C78.5101 28.376 78.2821 28.298 78.1141 28.142C77.9581 27.974 77.8801 27.746 77.8801 27.458V20.87H76.8721C76.6441 20.87 76.4641 20.81 76.3321 20.69C76.2001 20.558 76.1341 20.384 76.1341 20.168C76.1341 19.94 76.2001 19.766 76.3321 19.646C76.4641 19.526 76.6441 19.466 76.8721 19.466H78.4021L77.8801 19.952V19.304C77.8801 18.14 78.1681 17.252 78.7441 16.64C79.3201 16.028 80.1661 15.668 81.2821 15.56L81.8221 15.524C82.0381 15.5 82.2121 15.53 82.3441 15.614C82.4761 15.686 82.5661 15.794 82.6141 15.938C82.6621 16.07 82.6681 16.208 82.6321 16.352C82.5961 16.496 82.5301 16.622 82.4341 16.73C82.3501 16.826 82.2421 16.88 82.1101 16.892L81.6241 16.928C80.9521 16.976 80.4601 17.174 80.1481 17.522C79.8481 17.87 79.6981 18.38 79.6981 19.052V19.754L79.4461 19.466H84.3781C84.6781 19.466 84.9061 19.556 85.0621 19.736C85.2181 19.904 85.2961 20.138 85.2961 20.438V27.368C85.2961 27.68 85.2181 27.926 85.0621 28.106C84.9181 28.274 84.6901 28.358 84.3781 28.358C84.0901 28.358 83.8681 28.274 83.7121 28.106C83.5561 27.926 83.4781 27.68 83.4781 27.368V20.87H79.6981V27.458C79.6981 28.07 79.3981 28.376 78.7981 28.376ZM84.4141 17.504C84.0661 17.504 83.7961 17.414 83.6041 17.234C83.4121 17.054 83.3161 16.802 83.3161 16.478C83.3161 16.142 83.4121 15.89 83.6041 15.722C83.7961 15.542 84.0661 15.452 84.4141 15.452C84.7741 15.452 85.0441 15.542 85.2241 15.722C85.4161 15.89 85.5121 16.142 85.5121 16.478C85.5121 16.802 85.4161 17.054 85.2241 17.234C85.0441 17.414 84.7741 17.504 84.4141 17.504ZM91.8126 31.652C91.1646 31.652 90.5346 31.586 89.9226 31.454C89.3226 31.322 88.7766 31.106 88.2846 30.806C88.1046 30.71 87.9846 30.59 87.9246 30.446C87.8646 30.314 87.8466 30.176 87.8706 30.032C87.9066 29.888 87.9726 29.762 88.0686 29.654C88.1646 29.546 88.2786 29.474 88.4106 29.438C88.5546 29.402 88.7046 29.426 88.8606 29.51C89.3886 29.798 89.8866 29.99 90.3546 30.086C90.8346 30.194 91.2786 30.248 91.6866 30.248C92.5266 30.248 93.1566 30.032 93.5766 29.6C93.9966 29.18 94.2066 28.556 94.2066 27.728V25.892H94.3686C94.1886 26.552 93.8106 27.074 93.2346 27.458C92.6586 27.842 91.9926 28.034 91.2366 28.034C90.4446 28.034 89.7546 27.854 89.1666 27.494C88.5786 27.122 88.1226 26.612 87.7986 25.964C87.4746 25.304 87.3126 24.536 87.3126 23.66C87.3126 23 87.4026 22.406 87.5826 21.878C87.7746 21.35 88.0386 20.894 88.3746 20.51C88.7226 20.126 89.1366 19.832 89.6166 19.628C90.1086 19.412 90.6486 19.304 91.2366 19.304C92.0046 19.304 92.6706 19.496 93.2346 19.88C93.8106 20.264 94.1826 20.786 94.3506 21.446L94.1706 21.752V20.258C94.1706 19.958 94.2486 19.73 94.4046 19.574C94.5726 19.418 94.7946 19.34 95.0706 19.34C95.3586 19.34 95.5806 19.418 95.7366 19.574C95.8926 19.73 95.9706 19.958 95.9706 20.258V27.512C95.9706 28.88 95.6166 29.912 94.9086 30.608C94.2006 31.304 93.1686 31.652 91.8126 31.652ZM91.6686 26.612C92.1966 26.612 92.6466 26.492 93.0186 26.252C93.3906 26.012 93.6786 25.67 93.8826 25.226C94.0866 24.782 94.1886 24.26 94.1886 23.66C94.1886 22.76 93.9606 22.046 93.5046 21.518C93.0606 20.99 92.4486 20.726 91.6686 20.726C91.1526 20.726 90.7086 20.846 90.3366 21.086C89.9646 21.326 89.6706 21.668 89.4546 22.112C89.2506 22.544 89.1486 23.06 89.1486 23.66C89.1486 24.572 89.3766 25.292 89.8326 25.82C90.2886 26.348 90.9006 26.612 91.6686 26.612ZM101.654 28.412C100.946 28.412 100.352 28.28 99.8721 28.016C99.4041 27.752 99.0501 27.362 98.8101 26.846C98.5821 26.318 98.4681 25.658 98.4681 24.866V20.258C98.4681 19.946 98.5461 19.718 98.7021 19.574C98.8581 19.418 99.0801 19.34 99.3681 19.34C99.6561 19.34 99.8781 19.418 100.034 19.574C100.202 19.718 100.286 19.946 100.286 20.258V24.884C100.286 25.592 100.43 26.114 100.718 26.45C101.006 26.786 101.462 26.954 102.086 26.954C102.77 26.954 103.322 26.726 103.742 26.27C104.174 25.802 104.39 25.19 104.39 24.434V20.258C104.39 19.946 104.468 19.718 104.624 19.574C104.78 19.418 105.008 19.34 105.308 19.34C105.596 19.34 105.818 19.418 105.974 19.574C106.13 19.718 106.208 19.946 106.208 20.258V27.458C106.208 28.07 105.914 28.376 105.326 28.376C105.05 28.376 104.834 28.298 104.678 28.142C104.522 27.974 104.444 27.746 104.444 27.458V25.928L104.678 26.324C104.438 26.996 104.054 27.512 103.526 27.872C102.998 28.232 102.374 28.412 101.654 28.412ZM109.688 28.376C109.388 28.376 109.16 28.298 109.004 28.142C108.848 27.974 108.77 27.746 108.77 27.458V20.258C108.77 19.958 108.848 19.73 109.004 19.574C109.16 19.418 109.376 19.34 109.652 19.34C109.94 19.34 110.156 19.418 110.3 19.574C110.456 19.73 110.534 19.958 110.534 20.258V21.572H110.354C110.546 20.852 110.9 20.306 111.416 19.934C111.932 19.562 112.592 19.346 113.396 19.286C113.612 19.274 113.78 19.328 113.9 19.448C114.032 19.568 114.104 19.754 114.116 20.006C114.14 20.258 114.086 20.462 113.954 20.618C113.822 20.762 113.618 20.846 113.342 20.87L113 20.906C112.22 20.978 111.626 21.224 111.218 21.644C110.81 22.064 110.606 22.64 110.606 23.372V27.458C110.606 27.746 110.528 27.974 110.372 28.142C110.228 28.298 110 28.376 109.688 28.376ZM118.205 28.412C117.593 28.412 117.041 28.292 116.549 28.052C116.069 27.812 115.691 27.488 115.415 27.08C115.139 26.672 115.001 26.21 115.001 25.694C115.001 25.046 115.163 24.536 115.487 24.164C115.823 23.78 116.369 23.51 117.125 23.354C117.893 23.186 118.925 23.102 120.221 23.102H121.067V24.218H120.239C119.375 24.218 118.691 24.26 118.187 24.344C117.683 24.428 117.323 24.572 117.107 24.776C116.903 24.968 116.801 25.238 116.801 25.586C116.801 26.042 116.957 26.414 117.269 26.702C117.581 26.978 118.013 27.116 118.565 27.116C119.009 27.116 119.399 27.014 119.735 26.81C120.071 26.594 120.335 26.306 120.527 25.946C120.731 25.586 120.833 25.172 120.833 24.704V22.634C120.833 21.95 120.689 21.458 120.401 21.158C120.113 20.858 119.639 20.708 118.979 20.708C118.595 20.708 118.193 20.756 117.773 20.852C117.365 20.948 116.939 21.11 116.495 21.338C116.291 21.434 116.117 21.464 115.973 21.428C115.829 21.392 115.715 21.314 115.631 21.194C115.547 21.062 115.499 20.924 115.487 20.78C115.487 20.624 115.523 20.474 115.595 20.33C115.679 20.186 115.817 20.078 116.009 20.006C116.537 19.754 117.059 19.574 117.575 19.466C118.091 19.358 118.577 19.304 119.033 19.304C119.837 19.304 120.497 19.43 121.013 19.682C121.541 19.934 121.931 20.318 122.183 20.834C122.435 21.35 122.561 22.016 122.561 22.832V27.458C122.561 27.746 122.489 27.974 122.345 28.142C122.201 28.298 121.991 28.376 121.715 28.376C121.451 28.376 121.241 28.298 121.085 28.142C120.929 27.974 120.851 27.746 120.851 27.458V26.288H121.013C120.917 26.732 120.737 27.116 120.473 27.44C120.221 27.752 119.903 27.992 119.519 28.16C119.135 28.328 118.697 28.412 118.205 28.412ZM128.935 28.412C128.035 28.412 127.255 28.226 126.595 27.854C125.947 27.47 125.443 26.936 125.083 26.252C124.723 25.556 124.543 24.74 124.543 23.804C124.543 23.108 124.645 22.484 124.849 21.932C125.053 21.368 125.341 20.894 125.713 20.51C126.097 20.126 126.559 19.832 127.099 19.628C127.651 19.412 128.263 19.304 128.935 19.304C129.355 19.304 129.793 19.37 130.249 19.502C130.717 19.622 131.149 19.826 131.545 20.114C131.701 20.21 131.797 20.33 131.833 20.474C131.881 20.606 131.887 20.744 131.851 20.888C131.827 21.032 131.761 21.158 131.653 21.266C131.557 21.362 131.437 21.422 131.293 21.446C131.149 21.458 130.993 21.416 130.825 21.32C130.537 21.116 130.243 20.972 129.943 20.888C129.643 20.792 129.355 20.744 129.079 20.744C128.647 20.744 128.263 20.816 127.927 20.96C127.603 21.092 127.327 21.29 127.099 21.554C126.871 21.806 126.697 22.124 126.577 22.508C126.469 22.892 126.415 23.33 126.415 23.822C126.415 24.806 126.643 25.58 127.099 26.144C127.567 26.696 128.227 26.972 129.079 26.972C129.355 26.972 129.643 26.93 129.943 26.846C130.243 26.762 130.537 26.618 130.825 26.414C130.993 26.318 131.149 26.282 131.293 26.306C131.437 26.33 131.551 26.396 131.635 26.504C131.731 26.6 131.791 26.72 131.815 26.864C131.851 26.996 131.845 27.134 131.797 27.278C131.749 27.422 131.647 27.542 131.491 27.638C131.107 27.914 130.687 28.112 130.231 28.232C129.787 28.352 129.355 28.412 128.935 28.412ZM134.367 28.358C134.079 28.358 133.857 28.274 133.701 28.106C133.545 27.926 133.467 27.68 133.467 27.368V20.348C133.467 20.036 133.545 19.796 133.701 19.628C133.857 19.46 134.079 19.376 134.367 19.376C134.655 19.376 134.877 19.46 135.033 19.628C135.201 19.796 135.285 20.036 135.285 20.348V27.368C135.285 27.68 135.207 27.926 135.051 28.106C134.895 28.274 134.667 28.358 134.367 28.358ZM134.367 17.504C134.007 17.504 133.725 17.414 133.521 17.234C133.329 17.054 133.233 16.802 133.233 16.478C133.233 16.142 133.329 15.89 133.521 15.722C133.725 15.542 134.007 15.452 134.367 15.452C134.727 15.452 135.003 15.542 135.195 15.722C135.399 15.89 135.501 16.142 135.501 16.478C135.501 16.802 135.399 17.054 135.195 17.234C135.003 17.414 134.727 17.504 134.367 17.504ZM141.66 28.412C140.772 28.412 140.004 28.226 139.356 27.854C138.72 27.482 138.222 26.954 137.862 26.27C137.502 25.586 137.322 24.782 137.322 23.858C137.322 23.15 137.424 22.52 137.628 21.968C137.832 21.416 138.12 20.942 138.492 20.546C138.876 20.138 139.332 19.832 139.86 19.628C140.4 19.412 141 19.304 141.66 19.304C142.536 19.304 143.292 19.49 143.928 19.862C144.576 20.234 145.08 20.762 145.44 21.446C145.8 22.118 145.98 22.922 145.98 23.858C145.98 24.554 145.878 25.184 145.674 25.748C145.47 26.312 145.176 26.792 144.792 27.188C144.42 27.584 143.964 27.89 143.424 28.106C142.896 28.31 142.308 28.412 141.66 28.412ZM141.66 27.008C142.152 27.008 142.584 26.888 142.956 26.648C143.328 26.408 143.616 26.054 143.82 25.586C144.036 25.118 144.144 24.542 144.144 23.858C144.144 22.826 143.916 22.046 143.46 21.518C143.004 20.99 142.404 20.726 141.66 20.726C141.156 20.726 140.718 20.846 140.346 21.086C139.974 21.314 139.68 21.662 139.464 22.13C139.26 22.598 139.158 23.174 139.158 23.858C139.158 24.878 139.386 25.658 139.842 26.198C140.298 26.738 140.904 27.008 141.66 27.008ZM142.362 18.206C142.266 18.35 142.146 18.434 142.002 18.458C141.87 18.482 141.738 18.458 141.606 18.386C141.474 18.314 141.378 18.212 141.318 18.08C141.27 17.948 141.282 17.804 141.354 17.648L142.812 14.822C142.908 14.63 143.028 14.504 143.172 14.444C143.328 14.384 143.484 14.378 143.64 14.426C143.808 14.462 143.946 14.534 144.054 14.642C144.174 14.75 144.246 14.888 144.27 15.056C144.294 15.212 144.252 15.368 144.144 15.524L142.362 18.206ZM148.922 28.376C148.634 28.376 148.412 28.298 148.256 28.142C148.1 27.974 148.022 27.746 148.022 27.458V20.258C148.022 19.958 148.1 19.73 148.256 19.574C148.412 19.418 148.628 19.34 148.904 19.34C149.192 19.34 149.408 19.418 149.552 19.574C149.708 19.73 149.786 19.958 149.786 20.258V21.662L149.588 21.338C149.852 20.666 150.266 20.162 150.83 19.826C151.394 19.478 152.042 19.304 152.774 19.304C153.47 19.304 154.046 19.436 154.502 19.7C154.97 19.952 155.318 20.342 155.546 20.87C155.774 21.386 155.888 22.04 155.888 22.832V27.458C155.888 27.746 155.81 27.974 155.654 28.142C155.498 28.298 155.276 28.376 154.988 28.376C154.688 28.376 154.46 28.298 154.304 28.142C154.148 27.974 154.07 27.746 154.07 27.458V22.94C154.07 22.184 153.92 21.632 153.62 21.284C153.332 20.936 152.876 20.762 152.252 20.762C151.52 20.762 150.932 20.99 150.488 21.446C150.056 21.902 149.84 22.514 149.84 23.282V27.458C149.84 28.07 149.534 28.376 148.922 28.376Z" fill="white"/>
</svg>
