<svg width="281" height="41" viewBox="0 0 281 41" fill="none" xmlns="http://www.w3.org/2000/svg">
<path d="M13.8438 11.3125V20.5H15.1562V11.3125H13.8438Z" fill="white"/>
<path d="M7.93749 21.5657C7.93731 20.3936 8.25104 19.2429 8.84607 18.2331C9.4411 17.2233 10.2957 16.3913 11.3211 15.8235L10.6845 14.6764C9.16274 15.5191 7.96278 16.842 7.27202 18.4385C6.58125 20.035 6.43854 21.8154 6.86618 23.5015C7.29381 25.1877 8.26772 26.6849 9.63586 27.7592C11.004 28.8336 12.6894 29.4247 14.4289 29.4403C16.1684 29.4559 17.8641 28.8951 19.2513 27.8455C20.6385 26.7958 21.6391 25.3164 22.0969 23.6382C22.5547 21.96 22.444 20.1774 21.782 18.5687C21.12 16.96 19.9439 15.6158 18.4375 14.746L17.7799 15.8813C18.7777 16.457 19.6064 17.2853 20.1826 18.2829C20.7588 19.2804 21.0623 20.4121 21.0625 21.5641C21.0627 22.7161 20.7597 23.8479 20.1838 24.8456C19.608 25.8434 18.7796 26.672 17.7821 27.2481C16.7845 27.8243 15.6528 28.1277 14.5008 28.1278C13.3488 28.128 12.217 27.8248 11.2193 27.2489C10.2216 26.673 9.39304 25.8446 8.81696 24.847C8.24087 23.8494 7.93755 22.7177 7.93749 21.5657Z" fill="white"/>
<path d="M40.03 25.126C39.05 25.126 38.21 24.9207 37.51 24.51C36.81 24.0993 36.2687 23.516 35.886 22.76C35.5127 21.9947 35.326 21.094 35.326 20.058C35.326 19.2833 35.4333 18.588 35.648 17.972C35.8627 17.3467 36.1707 16.8147 36.572 16.376C36.9733 15.928 37.4633 15.5873 38.042 15.354C38.63 15.1207 39.2927 15.004 40.03 15.004C40.59 15.004 41.1267 15.0833 41.64 15.242C42.1627 15.4007 42.6107 15.6247 42.984 15.914C43.1333 16.0167 43.2313 16.1333 43.278 16.264C43.3247 16.3947 43.3293 16.5207 43.292 16.642C43.264 16.754 43.2033 16.852 43.11 16.936C43.026 17.0107 42.9187 17.0527 42.788 17.062C42.6573 17.062 42.5173 17.0107 42.368 16.908C42.0413 16.656 41.682 16.474 41.29 16.362C40.9073 16.2407 40.4967 16.18 40.058 16.18C39.3393 16.18 38.728 16.334 38.224 16.642C37.7293 16.9407 37.3513 17.3793 37.09 17.958C36.838 18.5273 36.712 19.2273 36.712 20.058C36.712 20.8793 36.838 21.584 37.09 22.172C37.3513 22.7507 37.7293 23.194 38.224 23.502C38.728 23.8007 39.3393 23.95 40.058 23.95C40.4967 23.95 40.912 23.8893 41.304 23.768C41.7053 23.6467 42.074 23.46 42.41 23.208C42.5593 23.1053 42.6947 23.0587 42.816 23.068C42.9467 23.0773 43.054 23.1193 43.138 23.194C43.222 23.2593 43.278 23.3527 43.306 23.474C43.3433 23.586 43.3433 23.7027 43.306 23.824C43.2687 23.9453 43.1847 24.0527 43.054 24.146C42.6713 24.4727 42.214 24.72 41.682 24.888C41.1593 25.0467 40.6087 25.126 40.03 25.126ZM47.6271 25.126C46.8897 25.126 46.2551 24.986 45.7231 24.706C45.2004 24.4167 44.7944 24.0107 44.5051 23.488C44.2157 22.956 44.0711 22.3307 44.0711 21.612C44.0711 20.9027 44.2111 20.282 44.4911 19.75C44.7804 19.218 45.1724 18.8027 45.6671 18.504C46.1711 18.2053 46.7451 18.056 47.3891 18.056C47.8464 18.056 48.2571 18.1353 48.6211 18.294C48.9944 18.4433 49.3117 18.6627 49.5731 18.952C49.8344 19.2413 50.0304 19.596 50.1611 20.016C50.3011 20.4267 50.3711 20.8933 50.3711 21.416C50.3711 21.5653 50.3244 21.682 50.2311 21.766C50.1471 21.8407 50.0211 21.878 49.8531 21.878H45.0651V21.066H49.5311L49.2931 21.262C49.2931 20.7767 49.2184 20.366 49.0691 20.03C48.9291 19.6847 48.7191 19.4233 48.4391 19.246C48.1684 19.0687 47.8277 18.98 47.4171 18.98C46.9691 18.98 46.5864 19.0873 46.2691 19.302C45.9517 19.5073 45.7091 19.8013 45.5411 20.184C45.3731 20.5573 45.2891 20.9913 45.2891 21.486V21.57C45.2891 22.41 45.4897 23.0447 45.8911 23.474C46.2924 23.9033 46.8711 24.118 47.6271 24.118C47.9257 24.118 48.2291 24.0807 48.5371 24.006C48.8544 23.9313 49.1577 23.796 49.4471 23.6C49.5871 23.516 49.7131 23.4787 49.8251 23.488C49.9464 23.488 50.0444 23.5253 50.1191 23.6C50.1937 23.6653 50.2404 23.7493 50.2591 23.852C50.2777 23.9453 50.2637 24.048 50.2171 24.16C50.1704 24.272 50.0817 24.37 49.9511 24.454C49.6431 24.6687 49.2744 24.8367 48.8451 24.958C48.4251 25.07 48.0191 25.126 47.6271 25.126ZM52.6136 25.098C52.3989 25.098 52.2356 25.042 52.1236 24.93C52.0116 24.818 51.9556 24.6547 51.9556 24.44V18.728C51.9556 18.5133 52.0116 18.3547 52.1236 18.252C52.2356 18.14 52.3896 18.084 52.5856 18.084C52.7816 18.084 52.9309 18.14 53.0336 18.252C53.1456 18.3547 53.2016 18.5133 53.2016 18.728V19.806H53.0616C53.2109 19.246 53.4909 18.8213 53.9016 18.532C54.3123 18.2427 54.8303 18.0793 55.4556 18.042C55.6049 18.0327 55.7263 18.07 55.8196 18.154C55.9129 18.2287 55.9643 18.3593 55.9736 18.546C55.9829 18.7233 55.9409 18.868 55.8476 18.98C55.7543 19.0827 55.6096 19.1433 55.4136 19.162L55.1616 19.176C54.5456 19.2413 54.0696 19.442 53.7336 19.778C53.4069 20.114 53.2436 20.576 53.2436 21.164V24.44C53.2436 24.6547 53.1876 24.818 53.0756 24.93C52.9729 25.042 52.8189 25.098 52.6136 25.098ZM57.7269 25.098C57.5122 25.098 57.3489 25.042 57.2369 24.93C57.1249 24.818 57.0689 24.6547 57.0689 24.44V18.728C57.0689 18.5133 57.1249 18.3547 57.2369 18.252C57.3489 18.14 57.5029 18.084 57.6989 18.084C57.8949 18.084 58.0442 18.14 58.1469 18.252C58.2589 18.3547 58.3149 18.5133 58.3149 18.728V19.806H58.1749C58.3242 19.246 58.6042 18.8213 59.0149 18.532C59.4255 18.2427 59.9435 18.0793 60.5689 18.042C60.7182 18.0327 60.8395 18.07 60.9329 18.154C61.0262 18.2287 61.0775 18.3593 61.0869 18.546C61.0962 18.7233 61.0542 18.868 60.9609 18.98C60.8675 19.0827 60.7229 19.1433 60.5269 19.162L60.2749 19.176C59.6589 19.2413 59.1829 19.442 58.8469 19.778C58.5202 20.114 58.3569 20.576 58.3569 21.164V24.44C58.3569 24.6547 58.3009 24.818 58.1889 24.93C58.0862 25.042 57.9322 25.098 57.7269 25.098ZM64.2838 25.126C63.8171 25.126 63.3925 25.0327 63.0098 24.846C62.6365 24.6593 62.3425 24.4073 62.1278 24.09C61.9225 23.7727 61.8198 23.418 61.8198 23.026C61.8198 22.522 61.9458 22.1253 62.1978 21.836C62.4498 21.5467 62.8745 21.3413 63.4718 21.22C64.0691 21.0893 64.8718 21.024 65.8798 21.024H66.5378V21.836H65.9078C65.1891 21.836 64.6198 21.8687 64.1998 21.934C63.7891 21.9993 63.4998 22.116 63.3318 22.284C63.1638 22.4427 63.0798 22.6667 63.0798 22.956C63.0798 23.32 63.2058 23.6187 63.4578 23.852C63.7191 24.0853 64.0738 24.202 64.5218 24.202C64.8765 24.202 65.1891 24.118 65.4598 23.95C65.7305 23.7727 65.9451 23.5393 66.1038 23.25C66.2625 22.9513 66.3418 22.6107 66.3418 22.228V20.618C66.3418 20.0673 66.2298 19.6707 66.0058 19.428C65.7818 19.176 65.4038 19.05 64.8718 19.05C64.5638 19.05 64.2465 19.092 63.9198 19.176C63.5931 19.26 63.2525 19.3907 62.8978 19.568C62.7578 19.6333 62.6365 19.6567 62.5338 19.638C62.4311 19.61 62.3471 19.554 62.2818 19.47C62.2258 19.3767 62.1931 19.2787 62.1838 19.176C62.1838 19.064 62.2071 18.9567 62.2538 18.854C62.3098 18.7513 62.4031 18.6767 62.5338 18.63C62.9445 18.4247 63.3505 18.28 63.7518 18.196C64.1625 18.1027 64.5451 18.056 64.8998 18.056C65.5065 18.056 66.0058 18.154 66.3978 18.35C66.7898 18.5367 67.0838 18.8307 67.2798 19.232C67.4758 19.624 67.5738 20.128 67.5738 20.744V24.44C67.5738 24.6547 67.5225 24.818 67.4198 24.93C67.3171 25.042 67.1678 25.098 66.9718 25.098C66.7851 25.098 66.6358 25.042 66.5238 24.93C66.4211 24.818 66.3698 24.6547 66.3698 24.44V23.446H66.4958C66.4211 23.7913 66.2811 24.09 66.0758 24.342C65.8705 24.594 65.6138 24.79 65.3058 24.93C65.0071 25.0607 64.6665 25.126 64.2838 25.126ZM70.2366 25.098C70.022 25.098 69.8586 25.042 69.7466 24.93C69.6346 24.818 69.5786 24.6547 69.5786 24.44V18.728C69.5786 18.5133 69.6346 18.3547 69.7466 18.252C69.8586 18.14 70.0126 18.084 70.2086 18.084C70.4046 18.084 70.554 18.14 70.6566 18.252C70.7686 18.3547 70.8246 18.5133 70.8246 18.728V19.806H70.6846C70.834 19.246 71.114 18.8213 71.5246 18.532C71.9353 18.2427 72.4533 18.0793 73.0786 18.042C73.228 18.0327 73.3493 18.07 73.4426 18.154C73.536 18.2287 73.5873 18.3593 73.5966 18.546C73.606 18.7233 73.564 18.868 73.4706 18.98C73.3773 19.0827 73.2326 19.1433 73.0366 19.162L72.7846 19.176C72.1686 19.2413 71.6926 19.442 71.3566 19.778C71.03 20.114 70.8666 20.576 70.8666 21.164V24.44C70.8666 24.6547 70.8106 24.818 70.6986 24.93C70.596 25.042 70.442 25.098 70.2366 25.098ZM80.6943 25.126C80.2743 25.126 79.8496 25.0793 79.4203 24.986C79.0003 24.8833 78.6036 24.7107 78.2303 24.468C78.1276 24.4027 78.053 24.3233 78.0063 24.23C77.969 24.1273 77.955 24.0293 77.9643 23.936C77.983 23.8333 78.025 23.7447 78.0903 23.67C78.1556 23.5953 78.235 23.5533 78.3283 23.544C78.431 23.5253 78.5383 23.5487 78.6503 23.614C79.0143 23.8193 79.3643 23.964 79.7003 24.048C80.0456 24.132 80.3863 24.174 80.7223 24.174C81.2356 24.174 81.623 24.0807 81.8843 23.894C82.1456 23.7073 82.2763 23.46 82.2763 23.152C82.2763 22.8907 82.1876 22.69 82.0103 22.55C81.8423 22.4007 81.5763 22.2887 81.2123 22.214L79.9103 21.948C79.3316 21.8173 78.893 21.6027 78.5943 21.304C78.305 20.996 78.1603 20.604 78.1603 20.128C78.1603 19.708 78.2723 19.344 78.4963 19.036C78.7296 18.7187 79.0516 18.476 79.4623 18.308C79.873 18.14 80.3443 18.056 80.8763 18.056C81.287 18.056 81.6743 18.112 82.0383 18.224C82.4116 18.3267 82.7476 18.4853 83.0463 18.7C83.1583 18.7653 83.2283 18.8493 83.2563 18.952C83.2936 19.0453 83.2983 19.1433 83.2703 19.246C83.2516 19.3393 83.2096 19.4187 83.1443 19.484C83.079 19.5493 82.995 19.5913 82.8923 19.61C82.7896 19.6193 82.6776 19.5913 82.5563 19.526C82.2856 19.3393 82.0056 19.2087 81.7163 19.134C81.4363 19.05 81.1563 19.008 80.8763 19.008C80.3723 19.008 79.9896 19.106 79.7283 19.302C79.4763 19.498 79.3503 19.7547 79.3503 20.072C79.3503 20.3147 79.425 20.5153 79.5743 20.674C79.733 20.8327 79.9803 20.9493 80.3163 21.024L81.6183 21.29C82.225 21.4207 82.6823 21.6307 82.9903 21.92C83.2983 22.2 83.4523 22.5827 83.4523 23.068C83.4523 23.7027 83.2003 24.2067 82.6963 24.58C82.2016 24.944 81.5343 25.126 80.6943 25.126ZM88.2599 25.126C87.5226 25.126 86.8879 24.986 86.3559 24.706C85.8332 24.4167 85.4272 24.0107 85.1379 23.488C84.8486 22.956 84.7039 22.3307 84.7039 21.612C84.7039 20.9027 84.8439 20.282 85.1239 19.75C85.4132 19.218 85.8052 18.8027 86.2999 18.504C86.8039 18.2053 87.3779 18.056 88.0219 18.056C88.4792 18.056 88.8899 18.1353 89.2539 18.294C89.6272 18.4433 89.9446 18.6627 90.2059 18.952C90.4672 19.2413 90.6632 19.596 90.7939 20.016C90.9339 20.4267 91.0039 20.8933 91.0039 21.416C91.0039 21.5653 90.9572 21.682 90.8639 21.766C90.7799 21.8407 90.6539 21.878 90.4859 21.878H85.6979V21.066H90.1639L89.9259 21.262C89.9259 20.7767 89.8512 20.366 89.7019 20.03C89.5619 19.6847 89.3519 19.4233 89.0719 19.246C88.8012 19.0687 88.4606 18.98 88.0499 18.98C87.6019 18.98 87.2192 19.0873 86.9019 19.302C86.5846 19.5073 86.3419 19.8013 86.1739 20.184C86.0059 20.5573 85.9219 20.9913 85.9219 21.486V21.57C85.9219 22.41 86.1226 23.0447 86.5239 23.474C86.9252 23.9033 87.5039 24.118 88.2599 24.118C88.5586 24.118 88.8619 24.0807 89.1699 24.006C89.4872 23.9313 89.7906 23.796 90.0799 23.6C90.2199 23.516 90.3459 23.4787 90.4579 23.488C90.5792 23.488 90.6772 23.5253 90.7519 23.6C90.8266 23.6653 90.8732 23.7493 90.8919 23.852C90.9106 23.9453 90.8966 24.048 90.8499 24.16C90.8032 24.272 90.7146 24.37 90.5839 24.454C90.2759 24.6687 89.9072 24.8367 89.4779 24.958C89.0579 25.07 88.6519 25.126 88.2599 25.126ZM94.9404 25.126C94.5204 25.126 94.0957 25.0793 93.6664 24.986C93.2464 24.8833 92.8497 24.7107 92.4764 24.468C92.3737 24.4027 92.2991 24.3233 92.2524 24.23C92.2151 24.1273 92.2011 24.0293 92.2104 23.936C92.2291 23.8333 92.2711 23.7447 92.3364 23.67C92.4017 23.5953 92.4811 23.5533 92.5744 23.544C92.6771 23.5253 92.7844 23.5487 92.8964 23.614C93.2604 23.8193 93.6104 23.964 93.9464 24.048C94.2917 24.132 94.6324 24.174 94.9684 24.174C95.4817 24.174 95.8691 24.0807 96.1304 23.894C96.3917 23.7073 96.5224 23.46 96.5224 23.152C96.5224 22.8907 96.4337 22.69 96.2564 22.55C96.0884 22.4007 95.8224 22.2887 95.4584 22.214L94.1564 21.948C93.5777 21.8173 93.1391 21.6027 92.8404 21.304C92.5511 20.996 92.4064 20.604 92.4064 20.128C92.4064 19.708 92.5184 19.344 92.7424 19.036C92.9757 18.7187 93.2977 18.476 93.7084 18.308C94.1191 18.14 94.5904 18.056 95.1224 18.056C95.5331 18.056 95.9204 18.112 96.2844 18.224C96.6577 18.3267 96.9937 18.4853 97.2924 18.7C97.4044 18.7653 97.4744 18.8493 97.5024 18.952C97.5397 19.0453 97.5444 19.1433 97.5164 19.246C97.4977 19.3393 97.4557 19.4187 97.3904 19.484C97.3251 19.5493 97.2411 19.5913 97.1384 19.61C97.0357 19.6193 96.9237 19.5913 96.8024 19.526C96.5317 19.3393 96.2517 19.2087 95.9624 19.134C95.6824 19.05 95.4024 19.008 95.1224 19.008C94.6184 19.008 94.2357 19.106 93.9744 19.302C93.7224 19.498 93.5964 19.7547 93.5964 20.072C93.5964 20.3147 93.6711 20.5153 93.8204 20.674C93.9791 20.8327 94.2264 20.9493 94.5624 21.024L95.8644 21.29C96.4711 21.4207 96.9284 21.6307 97.2364 21.92C97.5444 22.2 97.6984 22.5827 97.6984 23.068C97.6984 23.7027 97.4464 24.2067 96.9424 24.58C96.4477 24.944 95.7804 25.126 94.9404 25.126ZM99.986 25.07C99.79 25.07 99.636 25.0093 99.524 24.888C99.412 24.7667 99.356 24.5987 99.356 24.384V18.798C99.356 18.574 99.412 18.406 99.524 18.294C99.636 18.1727 99.79 18.112 99.986 18.112C100.191 18.112 100.35 18.1727 100.462 18.294C100.574 18.406 100.63 18.574 100.63 18.798V24.384C100.63 24.5987 100.574 24.7667 100.462 24.888C100.359 25.0093 100.201 25.07 99.986 25.07ZM99.986 16.6C99.734 16.6 99.5333 16.5347 99.384 16.404C99.244 16.264 99.174 16.082 99.174 15.858C99.174 15.6153 99.244 15.4333 99.384 15.312C99.5333 15.1813 99.734 15.116 99.986 15.116C100.257 15.116 100.457 15.1813 100.588 15.312C100.728 15.4333 100.798 15.6153 100.798 15.858C100.798 16.082 100.728 16.264 100.588 16.404C100.457 16.5347 100.257 16.6 99.986 16.6ZM105.576 25.126C104.904 25.126 104.321 24.9813 103.826 24.692C103.332 24.4027 102.949 23.992 102.678 23.46C102.408 22.928 102.272 22.3027 102.272 21.584C102.272 21.0427 102.347 20.5573 102.496 20.128C102.655 19.6893 102.879 19.316 103.168 19.008C103.458 18.7 103.803 18.4667 104.204 18.308C104.615 18.14 105.072 18.056 105.576 18.056C106.248 18.056 106.832 18.2007 107.326 18.49C107.821 18.7793 108.204 19.19 108.474 19.722C108.745 20.2447 108.88 20.8653 108.88 21.584C108.88 22.1253 108.801 22.6153 108.642 23.054C108.493 23.4927 108.274 23.866 107.984 24.174C107.695 24.482 107.345 24.72 106.934 24.888C106.533 25.0467 106.08 25.126 105.576 25.126ZM105.576 24.118C105.987 24.118 106.342 24.02 106.64 23.824C106.948 23.628 107.182 23.3433 107.34 22.97C107.508 22.5967 107.592 22.1347 107.592 21.584C107.592 20.7627 107.41 20.1373 107.046 19.708C106.682 19.2787 106.192 19.064 105.576 19.064C105.175 19.064 104.82 19.162 104.512 19.358C104.214 19.5447 103.98 19.8247 103.812 20.198C103.644 20.5713 103.56 21.0333 103.56 21.584C103.56 22.4053 103.742 23.0353 104.106 23.474C104.48 23.9033 104.97 24.118 105.576 24.118ZM106.08 17.202C106.006 17.3047 105.917 17.3653 105.814 17.384C105.721 17.4027 105.628 17.3887 105.534 17.342C105.441 17.286 105.376 17.2113 105.338 17.118C105.301 17.0247 105.31 16.9173 105.366 16.796L106.514 14.57C106.58 14.4207 106.668 14.3273 106.78 14.29C106.892 14.2433 107.004 14.234 107.116 14.262C107.238 14.29 107.34 14.346 107.424 14.43C107.508 14.5047 107.555 14.6027 107.564 14.724C107.583 14.836 107.555 14.9527 107.48 15.074L106.08 17.202ZM111.142 25.098C110.946 25.098 110.792 25.042 110.68 24.93C110.568 24.818 110.512 24.6547 110.512 24.44V18.728C110.512 18.5133 110.568 18.3547 110.68 18.252C110.792 18.14 110.946 18.084 111.142 18.084C111.338 18.084 111.488 18.14 111.59 18.252C111.702 18.3547 111.758 18.5133 111.758 18.728V19.876L111.604 19.666C111.8 19.134 112.118 18.7327 112.556 18.462C113.004 18.1913 113.513 18.056 114.082 18.056C114.633 18.056 115.086 18.154 115.44 18.35C115.795 18.546 116.061 18.8447 116.238 19.246C116.416 19.6473 116.504 20.156 116.504 20.772V24.44C116.504 24.6547 116.448 24.818 116.336 24.93C116.234 25.042 116.08 25.098 115.874 25.098C115.669 25.098 115.51 25.042 115.398 24.93C115.286 24.818 115.23 24.6547 115.23 24.44V20.842C115.23 20.2353 115.114 19.792 114.88 19.512C114.647 19.232 114.274 19.092 113.76 19.092C113.163 19.092 112.682 19.2787 112.318 19.652C111.964 20.016 111.786 20.5107 111.786 21.136V24.44C111.786 24.8787 111.572 25.098 111.142 25.098Z" fill="white"/>
</svg>
