<svg width="30" height="41" viewBox="0 0 30 41" fill="none" xmlns="http://www.w3.org/2000/svg">
<path d="M14.3438 11.3125V20.5H15.6562V11.3125H14.3438Z" fill="white"/>
<path d="M8.43749 21.5657C8.43731 20.3936 8.75104 19.2429 9.34607 18.2331C9.9411 17.2233 10.7957 16.3913 11.8211 15.8235L11.1845 14.6764C9.66274 15.5191 8.46278 16.842 7.77202 18.4385C7.08125 20.035 6.93854 21.8154 7.36618 23.5015C7.79381 25.1877 8.76772 26.6849 10.1359 27.7592C11.504 28.8336 13.1894 29.4247 14.9289 29.4403C16.6684 29.4559 18.3641 28.8951 19.7513 27.8455C21.1385 26.7958 22.1391 25.3164 22.5969 23.6382C23.0547 21.96 22.944 20.1774 22.282 18.5687C21.62 16.96 20.4439 15.6158 18.9375 14.746L18.2799 15.8813C19.2777 16.457 20.1064 17.2853 20.6826 18.2829C21.2588 19.2804 21.5623 20.4121 21.5625 21.5641C21.5627 22.7161 21.2597 23.8479 20.6838 24.8456C20.108 25.8434 19.2796 26.672 18.2821 27.2481C17.2845 27.8243 16.1528 28.1277 15.0008 28.1278C13.8488 28.128 12.717 27.8248 11.7193 27.2489C10.7216 26.673 9.89304 25.8446 9.31696 24.847C8.74087 23.8494 8.43755 22.7177 8.43749 21.5657Z" fill="white"/>
</svg>
