<svg width="53" height="53" viewBox="0 0 53 53" fill="none" xmlns="http://www.w3.org/2000/svg">
<path d="M40.7499 6.625C40.1976 6.625 39.7499 7.07272 39.7499 7.625V10.0417C39.7499 10.594 39.3022 11.0417 38.7499 11.0417H36.3333C35.781 11.0417 35.3333 10.594 35.3333 10.0417V7.625C35.3333 7.07271 34.8855 6.625 34.3333 6.625H18.6666C18.1143 6.625 17.6666 7.07272 17.6666 7.625V10.0417C17.6666 10.594 17.2189 11.0417 16.6666 11.0417H14.2499C13.6976 11.0417 13.2499 10.594 13.2499 10.0417V7.625C13.2499 7.07271 12.8022 6.625 12.2499 6.625H9.83325C9.28097 6.625 8.83325 7.07272 8.83325 7.625V45.375C8.83325 45.9273 9.28097 46.375 9.83325 46.375H12.2499C12.8022 46.375 13.2499 45.9273 13.2499 45.375V42.9583C13.2499 42.406 13.6976 41.9583 14.2499 41.9583H16.6666C17.2189 41.9583 17.6666 42.406 17.6666 42.9583V45.375C17.6666 45.9273 18.1143 46.375 18.6666 46.375H34.3333C34.8855 46.375 35.3333 45.9273 35.3333 45.375V42.9583C35.3333 42.406 35.781 41.9583 36.3333 41.9583H38.7499C39.3022 41.9583 39.7499 42.406 39.7499 42.9583V45.375C39.7499 45.9273 40.1976 46.375 40.7499 46.375H43.1666C43.7189 46.375 44.1666 45.9273 44.1666 45.375V7.625C44.1666 7.07271 43.7189 6.625 43.1666 6.625H40.7499ZM17.6666 36.5417C17.6666 37.094 17.2189 37.5417 16.6666 37.5417H14.2499C13.6976 37.5417 13.2499 37.094 13.2499 36.5417V34.125C13.2499 33.5727 13.6976 33.125 14.2499 33.125H16.6666C17.2189 33.125 17.6666 33.5727 17.6666 34.125V36.5417ZM17.6666 27.7083C17.6666 28.2606 17.2189 28.7083 16.6666 28.7083H14.2499C13.6976 28.7083 13.2499 28.2606 13.2499 27.7083V25.2917C13.2499 24.7394 13.6976 24.2917 14.2499 24.2917H16.6666C17.2189 24.2917 17.6666 24.7394 17.6666 25.2917V27.7083ZM17.6666 18.875C17.6666 19.4273 17.2189 19.875 16.6666 19.875H14.2499C13.6976 19.875 13.2499 19.4273 13.2499 18.875V16.4583C13.2499 15.906 13.6976 15.4583 14.2499 15.4583H16.6666C17.2189 15.4583 17.6666 15.906 17.6666 16.4583V18.875ZM39.7499 36.5417C39.7499 37.094 39.3022 37.5417 38.7499 37.5417H36.3333C35.781 37.5417 35.3333 37.094 35.3333 36.5417V34.125C35.3333 33.5727 35.781 33.125 36.3333 33.125H38.7499C39.3022 33.125 39.7499 33.5727 39.7499 34.125V36.5417ZM39.7499 27.7083C39.7499 28.2606 39.3022 28.7083 38.7499 28.7083H36.3333C35.781 28.7083 35.3333 28.2606 35.3333 27.7083V25.2917C35.3333 24.7394 35.781 24.2917 36.3333 24.2917H38.7499C39.3022 24.2917 39.7499 24.7394 39.7499 25.2917V27.7083ZM39.7499 18.875C39.7499 19.4273 39.3022 19.875 38.7499 19.875H36.3333C35.781 19.875 35.3333 19.4273 35.3333 18.875V16.4583C35.3333 15.906 35.781 15.4583 36.3333 15.4583H38.7499C39.3022 15.4583 39.7499 15.906 39.7499 16.4583V18.875Z" fill="#0385FF"/>
</svg>
