<svg width="180" height="36" viewBox="0 0 180 36" fill="none" xmlns="http://www.w3.org/2000/svg">
<path d="M27 4.5V7.5H24V4.5H12V7.5H9V4.5H6V31.5H9V28.5H12V31.5H24V28.5H27V31.5H30V4.5H27ZM12 25.5H9V22.5H12V25.5ZM12 19.5H9V16.5H12V19.5ZM12 13.5H9V10.5H12V13.5ZM27 25.5H24V22.5H27V25.5ZM27 19.5H24V16.5H27V19.5ZM27 13.5H24V10.5H27V13.5Z" fill="#0385FF"/>
<path d="M48.376 25.4594C48.1 25.4594 47.884 25.3814 47.728 25.2254C47.584 25.0694 47.512 24.8534 47.512 24.5774V13.3994C47.512 13.1114 47.59 12.8954 47.746 12.7514C47.902 12.5954 48.112 12.5174 48.376 12.5174C48.628 12.5174 48.82 12.5654 48.952 12.6614C49.096 12.7454 49.228 12.9014 49.348 13.1294L54.064 21.9314H53.506L58.204 13.1294C58.324 12.9014 58.45 12.7454 58.582 12.6614C58.714 12.5654 58.906 12.5174 59.158 12.5174C59.422 12.5174 59.626 12.5954 59.77 12.7514C59.914 12.8954 59.986 13.1114 59.986 13.3994V24.5774C59.986 24.8534 59.914 25.0694 59.77 25.2254C59.638 25.3814 59.434 25.4594 59.158 25.4594C58.882 25.4594 58.672 25.3814 58.528 25.2254C58.384 25.0694 58.312 24.8534 58.312 24.5774V15.2894H58.708L54.532 23.0114C54.436 23.1914 54.334 23.3234 54.226 23.4074C54.118 23.4914 53.968 23.5334 53.776 23.5334C53.584 23.5334 53.428 23.4914 53.308 23.4074C53.188 23.3114 53.08 23.1794 52.984 23.0114L48.772 15.2714H49.204V24.5774C49.204 24.8534 49.132 25.0694 48.988 25.2254C48.856 25.3814 48.652 25.4594 48.376 25.4594ZM66.5979 25.4954C65.7099 25.4954 64.9419 25.3094 64.2939 24.9374C63.6579 24.5654 63.1599 24.0374 62.7999 23.3534C62.4399 22.6694 62.2599 21.8654 62.2599 20.9414C62.2599 20.2334 62.3619 19.6034 62.5659 19.0514C62.7699 18.4994 63.0579 18.0254 63.4299 17.6294C63.8139 17.2214 64.2699 16.9154 64.7979 16.7114C65.3379 16.4954 65.9379 16.3874 66.5979 16.3874C67.4739 16.3874 68.2299 16.5734 68.8659 16.9454C69.5139 17.3174 70.0179 17.8454 70.3779 18.5294C70.7379 19.2014 70.9179 20.0054 70.9179 20.9414C70.9179 21.6374 70.8159 22.2674 70.6119 22.8314C70.4079 23.3954 70.1139 23.8754 69.7299 24.2714C69.3579 24.6674 68.9019 24.9734 68.3619 25.1894C67.8339 25.3934 67.2459 25.4954 66.5979 25.4954ZM66.5979 24.0914C67.0899 24.0914 67.5219 23.9714 67.8939 23.7314C68.2659 23.4914 68.5539 23.1374 68.7579 22.6694C68.9739 22.2014 69.0819 21.6254 69.0819 20.9414C69.0819 19.9094 68.8539 19.1294 68.3979 18.6014C67.9419 18.0734 67.3419 17.8094 66.5979 17.8094C66.0939 17.8094 65.6559 17.9294 65.2839 18.1694C64.9119 18.3974 64.6179 18.7454 64.4019 19.2134C64.1979 19.6814 64.0959 20.2574 64.0959 20.9414C64.0959 21.9614 64.3239 22.7414 64.7799 23.2814C65.2359 23.8214 65.8419 24.0914 66.5979 24.0914ZM76.2034 25.4594C75.9514 25.4594 75.7294 25.3934 75.5374 25.2614C75.3574 25.1294 75.2074 24.9254 75.0874 24.6494L72.0814 17.6654C71.9854 17.4494 71.9494 17.2454 71.9734 17.0534C71.9974 16.8614 72.0874 16.7114 72.2434 16.6034C72.3994 16.4834 72.6094 16.4234 72.8734 16.4234C73.1014 16.4234 73.2814 16.4774 73.4134 16.5854C73.5454 16.6934 73.6654 16.8794 73.7734 17.1434L76.4914 23.8394H75.9874L78.7594 17.1434C78.8674 16.8794 78.9874 16.6934 79.1194 16.5854C79.2634 16.4774 79.4614 16.4234 79.7134 16.4234C79.9294 16.4234 80.0974 16.4834 80.2174 16.6034C80.3494 16.7114 80.4274 16.8614 80.4514 17.0534C80.4874 17.2334 80.4574 17.4314 80.3614 17.6474L77.3194 24.6494C77.2114 24.9254 77.0614 25.1294 76.8694 25.2614C76.6774 25.3934 76.4554 25.4594 76.2034 25.4594ZM83.053 25.4414C82.765 25.4414 82.543 25.3574 82.387 25.1894C82.231 25.0094 82.153 24.7634 82.153 24.4514V17.4314C82.153 17.1194 82.231 16.8794 82.387 16.7114C82.543 16.5434 82.765 16.4594 83.053 16.4594C83.341 16.4594 83.563 16.5434 83.719 16.7114C83.887 16.8794 83.971 17.1194 83.971 17.4314V24.4514C83.971 24.7634 83.893 25.0094 83.737 25.1894C83.581 25.3574 83.353 25.4414 83.053 25.4414ZM83.053 14.5874C82.693 14.5874 82.411 14.4974 82.207 14.3174C82.015 14.1374 81.919 13.8854 81.919 13.5614C81.919 13.2254 82.015 12.9734 82.207 12.8054C82.411 12.6254 82.693 12.5354 83.053 12.5354C83.413 12.5354 83.689 12.6254 83.881 12.8054C84.085 12.9734 84.187 13.2254 84.187 13.5614C84.187 13.8854 84.085 14.1374 83.881 14.3174C83.689 14.4974 83.413 14.5874 83.053 14.5874ZM90.652 25.4954C89.692 25.4954 88.864 25.3154 88.168 24.9554C87.484 24.5834 86.95 24.0614 86.566 23.3894C86.194 22.7054 86.008 21.8954 86.008 20.9594C86.008 20.0474 86.194 19.2494 86.566 18.5654C86.938 17.8814 87.448 17.3474 88.096 16.9634C88.744 16.5794 89.482 16.3874 90.31 16.3874C90.922 16.3874 91.468 16.4894 91.948 16.6934C92.428 16.8854 92.836 17.1734 93.172 17.5574C93.52 17.9294 93.778 18.3854 93.946 18.9254C94.126 19.4654 94.216 20.0714 94.216 20.7434C94.216 20.9474 94.156 21.1034 94.036 21.2114C93.916 21.3074 93.736 21.3554 93.496 21.3554H87.448V20.2394H92.992L92.686 20.4914C92.686 19.8914 92.596 19.3814 92.416 18.9614C92.248 18.5414 91.99 18.2234 91.642 18.0074C91.306 17.7794 90.886 17.6654 90.382 17.6654C89.818 17.6654 89.338 17.7974 88.942 18.0614C88.558 18.3254 88.264 18.6914 88.06 19.1594C87.856 19.6274 87.754 20.1734 87.754 20.7974V20.9054C87.754 21.9614 88 22.7594 88.492 23.2994C88.996 23.8274 89.722 24.0914 90.67 24.0914C91.03 24.0914 91.408 24.0434 91.804 23.9474C92.212 23.8514 92.596 23.6894 92.956 23.4614C93.16 23.3414 93.34 23.2874 93.496 23.2994C93.664 23.3114 93.796 23.3654 93.892 23.4614C94 23.5574 94.066 23.6774 94.09 23.8214C94.114 23.9654 94.09 24.1154 94.018 24.2714C93.946 24.4154 93.82 24.5474 93.64 24.6674C93.232 24.9434 92.758 25.1534 92.218 25.2974C91.678 25.4294 91.156 25.4954 90.652 25.4954ZM102.078 25.4594C101.778 25.4594 101.544 25.3754 101.376 25.2074C101.22 25.0394 101.142 24.8054 101.142 24.5054V13.5974C101.142 13.2854 101.226 13.0514 101.394 12.8954C101.562 12.7274 101.796 12.6434 102.096 12.6434H106.398C107.766 12.6434 108.822 12.9854 109.566 13.6694C110.31 14.3414 110.682 15.2894 110.682 16.5134C110.682 17.7494 110.31 18.7094 109.566 19.3934C108.822 20.0654 107.766 20.4014 106.398 20.4014H103.014V24.5054C103.014 24.8054 102.936 25.0394 102.78 25.2074C102.624 25.3754 102.39 25.4594 102.078 25.4594ZM103.014 18.9074H106.128C107.028 18.9074 107.706 18.7094 108.162 18.3134C108.63 17.9054 108.864 17.3054 108.864 16.5134C108.864 15.7334 108.63 15.1454 108.162 14.7494C107.706 14.3414 107.028 14.1374 106.128 14.1374H103.014V18.9074ZM114.861 25.4954C114.249 25.4954 113.697 25.3754 113.205 25.1354C112.725 24.8954 112.347 24.5714 112.071 24.1634C111.795 23.7554 111.657 23.2934 111.657 22.7774C111.657 22.1294 111.819 21.6194 112.143 21.2474C112.479 20.8634 113.025 20.5934 113.781 20.4374C114.549 20.2694 115.581 20.1854 116.877 20.1854H117.723V21.3014H116.895C116.031 21.3014 115.347 21.3434 114.843 21.4274C114.339 21.5114 113.979 21.6554 113.763 21.8594C113.559 22.0514 113.457 22.3214 113.457 22.6694C113.457 23.1254 113.613 23.4974 113.925 23.7854C114.237 24.0614 114.669 24.1994 115.221 24.1994C115.665 24.1994 116.055 24.0974 116.391 23.8934C116.727 23.6774 116.991 23.3894 117.183 23.0294C117.387 22.6694 117.489 22.2554 117.489 21.7874V19.7174C117.489 19.0334 117.345 18.5414 117.057 18.2414C116.769 17.9414 116.295 17.7914 115.635 17.7914C115.251 17.7914 114.849 17.8394 114.429 17.9354C114.021 18.0314 113.595 18.1934 113.151 18.4214C112.947 18.5174 112.773 18.5474 112.629 18.5114C112.485 18.4754 112.371 18.3974 112.287 18.2774C112.203 18.1454 112.155 18.0074 112.143 17.8634C112.143 17.7074 112.179 17.5574 112.251 17.4134C112.335 17.2694 112.473 17.1614 112.665 17.0894C113.193 16.8374 113.715 16.6574 114.231 16.5494C114.747 16.4414 115.233 16.3874 115.689 16.3874C116.493 16.3874 117.153 16.5134 117.669 16.7654C118.197 17.0174 118.587 17.4014 118.839 17.9174C119.091 18.4334 119.217 19.0994 119.217 19.9154V24.5414C119.217 24.8294 119.145 25.0574 119.001 25.2254C118.857 25.3814 118.647 25.4594 118.371 25.4594C118.107 25.4594 117.897 25.3814 117.741 25.2254C117.585 25.0574 117.507 24.8294 117.507 24.5414V23.3714H117.669C117.573 23.8154 117.393 24.1994 117.129 24.5234C116.877 24.8354 116.559 25.0754 116.175 25.2434C115.791 25.4114 115.353 25.4954 114.861 25.4954ZM125.699 28.7354C125.051 28.7354 124.421 28.6694 123.809 28.5374C123.209 28.4054 122.663 28.1894 122.171 27.8894C121.991 27.7934 121.871 27.6734 121.811 27.5294C121.751 27.3974 121.733 27.2594 121.757 27.1154C121.793 26.9714 121.859 26.8454 121.955 26.7374C122.051 26.6294 122.165 26.5574 122.297 26.5214C122.441 26.4854 122.591 26.5094 122.747 26.5934C123.275 26.8814 123.773 27.0734 124.241 27.1694C124.721 27.2774 125.165 27.3314 125.573 27.3314C126.413 27.3314 127.043 27.1154 127.463 26.6834C127.883 26.2634 128.093 25.6394 128.093 24.8114V22.9754H128.255C128.075 23.6354 127.697 24.1574 127.121 24.5414C126.545 24.9254 125.879 25.1174 125.123 25.1174C124.331 25.1174 123.641 24.9374 123.053 24.5774C122.465 24.2054 122.009 23.6954 121.685 23.0474C121.361 22.3874 121.199 21.6194 121.199 20.7434C121.199 20.0834 121.289 19.4894 121.469 18.9614C121.661 18.4334 121.925 17.9774 122.261 17.5934C122.609 17.2094 123.023 16.9154 123.503 16.7114C123.995 16.4954 124.535 16.3874 125.123 16.3874C125.891 16.3874 126.557 16.5794 127.121 16.9634C127.697 17.3474 128.069 17.8694 128.237 18.5294L128.057 18.8354V17.3414C128.057 17.0414 128.135 16.8134 128.291 16.6574C128.459 16.5014 128.681 16.4234 128.957 16.4234C129.245 16.4234 129.467 16.5014 129.623 16.6574C129.779 16.8134 129.857 17.0414 129.857 17.3414V24.5954C129.857 25.9634 129.503 26.9954 128.795 27.6914C128.087 28.3874 127.055 28.7354 125.699 28.7354ZM125.555 23.6954C126.083 23.6954 126.533 23.5754 126.905 23.3354C127.277 23.0954 127.565 22.7534 127.769 22.3094C127.973 21.8654 128.075 21.3434 128.075 20.7434C128.075 19.8434 127.847 19.1294 127.391 18.6014C126.947 18.0734 126.335 17.8094 125.555 17.8094C125.039 17.8094 124.595 17.9294 124.223 18.1694C123.851 18.4094 123.557 18.7514 123.341 19.1954C123.137 19.6274 123.035 20.1434 123.035 20.7434C123.035 21.6554 123.263 22.3754 123.719 22.9034C124.175 23.4314 124.787 23.6954 125.555 23.6954ZM136.531 25.4954C135.571 25.4954 134.743 25.3154 134.047 24.9554C133.363 24.5834 132.829 24.0614 132.445 23.3894C132.073 22.7054 131.887 21.8954 131.887 20.9594C131.887 20.0474 132.073 19.2494 132.445 18.5654C132.817 17.8814 133.327 17.3474 133.975 16.9634C134.623 16.5794 135.361 16.3874 136.189 16.3874C136.801 16.3874 137.347 16.4894 137.827 16.6934C138.307 16.8854 138.715 17.1734 139.051 17.5574C139.399 17.9294 139.657 18.3854 139.825 18.9254C140.005 19.4654 140.095 20.0714 140.095 20.7434C140.095 20.9474 140.035 21.1034 139.915 21.2114C139.795 21.3074 139.615 21.3554 139.375 21.3554H133.327V20.2394H138.871L138.565 20.4914C138.565 19.8914 138.475 19.3814 138.295 18.9614C138.127 18.5414 137.869 18.2234 137.521 18.0074C137.185 17.7794 136.765 17.6654 136.261 17.6654C135.697 17.6654 135.217 17.7974 134.821 18.0614C134.437 18.3254 134.143 18.6914 133.939 19.1594C133.735 19.6274 133.633 20.1734 133.633 20.7974V20.9054C133.633 21.9614 133.879 22.7594 134.371 23.2994C134.875 23.8274 135.601 24.0914 136.549 24.0914C136.909 24.0914 137.287 24.0434 137.683 23.9474C138.091 23.8514 138.475 23.6894 138.835 23.4614C139.039 23.3414 139.219 23.2874 139.375 23.2994C139.543 23.3114 139.675 23.3654 139.771 23.4614C139.879 23.5574 139.945 23.6774 139.969 23.8214C139.993 23.9654 139.969 24.1154 139.897 24.2714C139.825 24.4154 139.699 24.5474 139.519 24.6674C139.111 24.9434 138.637 25.1534 138.097 25.2974C137.557 25.4294 137.035 25.4954 136.531 25.4954Z" fill="white"/>
</svg>
