<svg width="296" height="45" viewBox="0 0 296 45" fill="none" xmlns="http://www.w3.org/2000/svg">
<path d="M32.4231 19.3681C32.3294 19.0799 32.1524 18.8258 31.9145 18.6379C31.6766 18.4501 31.3884 18.3369 31.0863 18.3125L25.555 17.8662L23.4194 12.7016C23.3039 12.4201 23.1073 12.1794 22.8547 12.01C22.602 11.8406 22.3047 11.7501 22.0005 11.7501C21.6963 11.7501 21.3989 11.8406 21.1463 12.01C20.8936 12.1794 20.6971 12.4201 20.5816 12.7016L18.4478 17.8653L12.9138 18.3125C12.6111 18.3381 12.3227 18.4524 12.0848 18.6412C11.8468 18.8299 11.6699 19.0847 11.5761 19.3736C11.4823 19.6625 11.4758 19.9726 11.5575 20.2652C11.6392 20.5577 11.8054 20.8196 12.0353 21.0181L16.2541 24.6584L14.9688 30.1016C14.8969 30.3973 14.9145 30.7077 15.0193 30.9934C15.1242 31.2791 15.3115 31.5271 15.5577 31.7062C15.8038 31.8852 16.0975 31.987 16.4016 31.9988C16.7057 32.0105 17.0064 31.9317 17.2656 31.7722L22 28.8584L26.7372 31.7722C26.9965 31.9298 27.2966 32.0071 27.5997 31.9945C27.9029 31.9818 28.1955 31.8798 28.4408 31.7012C28.6861 31.5226 28.873 31.2754 28.9781 30.9907C29.0832 30.7061 29.1017 30.3967 29.0313 30.1016L27.7413 24.6575L31.96 21.0172C32.1918 20.819 32.3595 20.5565 32.4419 20.263C32.5244 19.9694 32.5178 19.658 32.4231 19.3681ZM30.985 19.8809L26.4194 23.8184C26.3153 23.9082 26.2378 24.0248 26.1955 24.1556C26.1532 24.2864 26.1476 24.4263 26.1794 24.56L27.5744 30.4475C27.578 30.4556 27.5783 30.4648 27.5754 30.4732C27.5724 30.4815 27.5664 30.4885 27.5584 30.4925C27.5416 30.5056 27.5369 30.5028 27.5228 30.4925L22.3928 27.3378C22.2747 27.2652 22.1387 27.2267 22 27.2267C21.8613 27.2267 21.7253 27.2652 21.6072 27.3378L16.4772 30.4944C16.4631 30.5028 16.4594 30.5056 16.4416 30.4944C16.4337 30.4903 16.4276 30.4834 16.4246 30.475C16.4217 30.4667 16.422 30.4575 16.4256 30.4494L17.8206 24.5619C17.8524 24.4281 17.8468 24.2882 17.8045 24.1575C17.7622 24.0267 17.6847 23.91 17.5806 23.8203L13.015 19.8828C13.0038 19.8734 12.9934 19.865 13.0028 19.8359C13.0122 19.8069 13.0197 19.8106 13.0338 19.8087L19.0263 19.325C19.1637 19.3132 19.2952 19.2637 19.4064 19.182C19.5175 19.1003 19.604 18.9895 19.6563 18.8619L21.9644 13.2734C21.9719 13.2575 21.9747 13.25 21.9972 13.25C22.0197 13.25 22.0225 13.2575 22.03 13.2734L24.3438 18.8619C24.3965 18.9896 24.4835 19.1002 24.5952 19.1816C24.7068 19.263 24.8388 19.312 24.9766 19.3231L30.9691 19.8069C30.9831 19.8069 30.9916 19.8069 31 19.8341C31.0084 19.8612 31 19.8716 30.985 19.8809Z" fill="white"/>
<path d="M46.412 28.376C46.112 28.376 45.878 28.292 45.71 28.124C45.554 27.956 45.476 27.722 45.476 27.422V16.514C45.476 16.202 45.56 15.968 45.728 15.812C45.896 15.644 46.13 15.56 46.43 15.56H50.732C52.1 15.56 53.156 15.902 53.9 16.586C54.644 17.258 55.016 18.206 55.016 19.43C55.016 20.666 54.644 21.626 53.9 22.31C53.156 22.982 52.1 23.318 50.732 23.318H47.348V27.422C47.348 27.722 47.27 27.956 47.114 28.124C46.958 28.292 46.724 28.376 46.412 28.376ZM47.348 21.824H50.462C51.362 21.824 52.04 21.626 52.496 21.23C52.964 20.822 53.198 20.222 53.198 19.43C53.198 18.65 52.964 18.062 52.496 17.666C52.04 17.258 51.362 17.054 50.462 17.054H47.348V21.824ZM59.8358 28.412C59.1278 28.412 58.5338 28.28 58.0538 28.016C57.5858 27.752 57.2318 27.362 56.9918 26.846C56.7638 26.318 56.6498 25.658 56.6498 24.866V20.258C56.6498 19.946 56.7278 19.718 56.8838 19.574C57.0398 19.418 57.2618 19.34 57.5498 19.34C57.8378 19.34 58.0598 19.418 58.2158 19.574C58.3838 19.718 58.4678 19.946 58.4678 20.258V24.884C58.4678 25.592 58.6118 26.114 58.8998 26.45C59.1878 26.786 59.6438 26.954 60.2678 26.954C60.9518 26.954 61.5038 26.726 61.9238 26.27C62.3558 25.802 62.5718 25.19 62.5718 24.434V20.258C62.5718 19.946 62.6498 19.718 62.8058 19.574C62.9618 19.418 63.1898 19.34 63.4898 19.34C63.7778 19.34 63.9998 19.418 64.1558 19.574C64.3118 19.718 64.3898 19.946 64.3898 20.258V27.458C64.3898 28.07 64.0958 28.376 63.5078 28.376C63.2318 28.376 63.0158 28.298 62.8598 28.142C62.7038 27.974 62.6258 27.746 62.6258 27.458V25.928L62.8598 26.324C62.6198 26.996 62.2358 27.512 61.7078 27.872C61.1798 28.232 60.5558 28.412 59.8358 28.412ZM67.8518 28.376C67.5638 28.376 67.3418 28.298 67.1858 28.142C67.0298 27.974 66.9518 27.746 66.9518 27.458V20.258C66.9518 19.958 67.0298 19.73 67.1858 19.574C67.3418 19.418 67.5578 19.34 67.8338 19.34C68.1218 19.34 68.3378 19.418 68.4818 19.574C68.6378 19.73 68.7158 19.958 68.7158 20.258V21.662L68.5178 21.338C68.7818 20.666 69.1958 20.162 69.7598 19.826C70.3238 19.478 70.9718 19.304 71.7038 19.304C72.3998 19.304 72.9758 19.436 73.4318 19.7C73.8998 19.952 74.2478 20.342 74.4758 20.87C74.7038 21.386 74.8178 22.04 74.8178 22.832V27.458C74.8178 27.746 74.7398 27.974 74.5838 28.142C74.4278 28.298 74.2058 28.376 73.9178 28.376C73.6178 28.376 73.3898 28.298 73.2338 28.142C73.0778 27.974 72.9998 27.746 72.9998 27.458V22.94C72.9998 22.184 72.8498 21.632 72.5498 21.284C72.2618 20.936 71.8058 20.762 71.1818 20.762C70.4498 20.762 69.8618 20.99 69.4178 21.446C68.9858 21.902 68.7698 22.514 68.7698 23.282V27.458C68.7698 28.07 68.4638 28.376 67.8518 28.376ZM81.0669 28.412C80.3469 28.412 79.7409 28.286 79.2489 28.034C78.7569 27.782 78.3909 27.41 78.1509 26.918C77.9109 26.426 77.7909 25.826 77.7909 25.118V20.87H76.7109C76.4709 20.87 76.2849 20.81 76.1529 20.69C76.0209 20.558 75.9549 20.384 75.9549 20.168C75.9549 19.94 76.0209 19.766 76.1529 19.646C76.2849 19.526 76.4709 19.466 76.7109 19.466H77.7909V17.612C77.7909 17.312 77.8689 17.084 78.0249 16.928C78.1929 16.772 78.4209 16.694 78.7089 16.694C78.9969 16.694 79.2189 16.772 79.3749 16.928C79.5309 17.084 79.6089 17.312 79.6089 17.612V19.466H81.7149C81.9549 19.466 82.1409 19.526 82.2729 19.646C82.4049 19.766 82.4709 19.94 82.4709 20.168C82.4709 20.384 82.4049 20.558 82.2729 20.69C82.1409 20.81 81.9549 20.87 81.7149 20.87H79.6089V24.974C79.6089 25.61 79.7409 26.09 80.0049 26.414C80.2809 26.738 80.7249 26.9 81.3369 26.9C81.5529 26.9 81.7389 26.882 81.8949 26.846C82.0629 26.798 82.2009 26.768 82.3089 26.756C82.4409 26.756 82.5489 26.804 82.6329 26.9C82.7169 26.984 82.7589 27.152 82.7589 27.404C82.7589 27.584 82.7229 27.752 82.6509 27.908C82.5909 28.064 82.4769 28.166 82.3089 28.214C82.1649 28.262 81.9669 28.304 81.7149 28.34C81.4749 28.388 81.2589 28.412 81.0669 28.412ZM87.0291 28.412C86.3211 28.412 85.7271 28.28 85.2471 28.016C84.7791 27.752 84.4251 27.362 84.1851 26.846C83.9571 26.318 83.8431 25.658 83.8431 24.866V20.258C83.8431 19.946 83.9211 19.718 84.0771 19.574C84.2331 19.418 84.4551 19.34 84.7431 19.34C85.0311 19.34 85.2531 19.418 85.4091 19.574C85.5771 19.718 85.6611 19.946 85.6611 20.258V24.884C85.6611 25.592 85.8051 26.114 86.0931 26.45C86.3811 26.786 86.8371 26.954 87.4611 26.954C88.1451 26.954 88.6971 26.726 89.1171 26.27C89.5491 25.802 89.7651 25.19 89.7651 24.434V20.258C89.7651 19.946 89.8431 19.718 89.9991 19.574C90.1551 19.418 90.3831 19.34 90.6831 19.34C90.9711 19.34 91.1931 19.418 91.3491 19.574C91.5051 19.718 91.5831 19.946 91.5831 20.258V27.458C91.5831 28.07 91.2891 28.376 90.7011 28.376C90.4251 28.376 90.2091 28.298 90.0531 28.142C89.8971 27.974 89.8191 27.746 89.8191 27.458V25.928L90.0531 26.324C89.8131 26.996 89.4291 27.512 88.9011 27.872C88.3731 28.232 87.7491 28.412 87.0291 28.412ZM96.9532 28.412C96.3412 28.412 95.7892 28.292 95.2972 28.052C94.8172 27.812 94.4392 27.488 94.1632 27.08C93.8872 26.672 93.7492 26.21 93.7492 25.694C93.7492 25.046 93.9112 24.536 94.2352 24.164C94.5712 23.78 95.1172 23.51 95.8732 23.354C96.6412 23.186 97.6732 23.102 98.9692 23.102H99.8152V24.218H98.9872C98.1232 24.218 97.4392 24.26 96.9352 24.344C96.4312 24.428 96.0712 24.572 95.8552 24.776C95.6512 24.968 95.5492 25.238 95.5492 25.586C95.5492 26.042 95.7052 26.414 96.0172 26.702C96.3292 26.978 96.7612 27.116 97.3132 27.116C97.7572 27.116 98.1472 27.014 98.4832 26.81C98.8192 26.594 99.0832 26.306 99.2752 25.946C99.4792 25.586 99.5812 25.172 99.5812 24.704V22.634C99.5812 21.95 99.4372 21.458 99.1492 21.158C98.8612 20.858 98.3872 20.708 97.7272 20.708C97.3432 20.708 96.9412 20.756 96.5212 20.852C96.1132 20.948 95.6872 21.11 95.2432 21.338C95.0392 21.434 94.8652 21.464 94.7212 21.428C94.5772 21.392 94.4632 21.314 94.3792 21.194C94.2952 21.062 94.2472 20.924 94.2352 20.78C94.2352 20.624 94.2712 20.474 94.3432 20.33C94.4272 20.186 94.5652 20.078 94.7572 20.006C95.2852 19.754 95.8072 19.574 96.3232 19.466C96.8392 19.358 97.3252 19.304 97.7812 19.304C98.5852 19.304 99.2452 19.43 99.7612 19.682C100.289 19.934 100.679 20.318 100.931 20.834C101.183 21.35 101.309 22.016 101.309 22.832V27.458C101.309 27.746 101.237 27.974 101.093 28.142C100.949 28.298 100.739 28.376 100.463 28.376C100.199 28.376 99.9892 28.298 99.8332 28.142C99.6772 27.974 99.5992 27.746 99.5992 27.458V26.288H99.7612C99.6652 26.732 99.4852 27.116 99.2212 27.44C98.9692 27.752 98.6512 27.992 98.2672 28.16C97.8832 28.328 97.4452 28.412 96.9532 28.412ZM104.731 28.376C104.431 28.376 104.203 28.298 104.047 28.142C103.891 27.974 103.813 27.746 103.813 27.458V20.258C103.813 19.958 103.891 19.73 104.047 19.574C104.203 19.418 104.419 19.34 104.695 19.34C104.983 19.34 105.199 19.418 105.343 19.574C105.499 19.73 105.577 19.958 105.577 20.258V21.572H105.397C105.589 20.852 105.943 20.306 106.459 19.934C106.975 19.562 107.635 19.346 108.439 19.286C108.655 19.274 108.823 19.328 108.943 19.448C109.075 19.568 109.147 19.754 109.159 20.006C109.183 20.258 109.129 20.462 108.997 20.618C108.865 20.762 108.661 20.846 108.385 20.87L108.043 20.906C107.263 20.978 106.669 21.224 106.261 21.644C105.853 22.064 105.649 22.64 105.649 23.372V27.458C105.649 27.746 105.571 27.974 105.415 28.142C105.271 28.298 105.043 28.376 104.731 28.376ZM116.714 28.376C116.426 28.376 116.198 28.298 116.03 28.142C115.874 27.974 115.796 27.746 115.796 27.458V20.87H114.788C114.56 20.87 114.38 20.81 114.248 20.69C114.116 20.558 114.05 20.384 114.05 20.168C114.05 19.94 114.116 19.766 114.248 19.646C114.38 19.526 114.56 19.466 114.788 19.466H116.318L115.796 19.952V19.304C115.796 18.14 116.084 17.252 116.66 16.64C117.236 16.028 118.082 15.668 119.198 15.56L119.738 15.524C119.954 15.5 120.128 15.53 120.26 15.614C120.392 15.686 120.482 15.794 120.53 15.938C120.578 16.07 120.584 16.208 120.548 16.352C120.512 16.496 120.446 16.622 120.35 16.73C120.266 16.826 120.158 16.88 120.026 16.892L119.54 16.928C118.868 16.976 118.376 17.174 118.064 17.522C117.764 17.87 117.614 18.38 117.614 19.052V19.754L117.362 19.466H122.294C122.594 19.466 122.822 19.556 122.978 19.736C123.134 19.904 123.212 20.138 123.212 20.438V27.368C123.212 27.68 123.134 27.926 122.978 28.106C122.834 28.274 122.606 28.358 122.294 28.358C122.006 28.358 121.784 28.274 121.628 28.106C121.472 27.926 121.394 27.68 121.394 27.368V20.87H117.614V27.458C117.614 28.07 117.314 28.376 116.714 28.376ZM122.33 17.504C121.982 17.504 121.712 17.414 121.52 17.234C121.328 17.054 121.232 16.802 121.232 16.478C121.232 16.142 121.328 15.89 121.52 15.722C121.712 15.542 121.982 15.452 122.33 15.452C122.69 15.452 122.96 15.542 123.14 15.722C123.332 15.89 123.428 16.142 123.428 16.478C123.428 16.802 123.332 17.054 123.14 17.234C122.96 17.414 122.69 17.504 122.33 17.504ZM128.577 28.412C127.641 28.412 126.933 28.142 126.453 27.602C125.985 27.05 125.751 26.258 125.751 25.226V16.352C125.751 16.052 125.829 15.824 125.985 15.668C126.141 15.512 126.363 15.434 126.651 15.434C126.939 15.434 127.161 15.512 127.317 15.668C127.485 15.824 127.569 16.052 127.569 16.352V25.118C127.569 25.718 127.689 26.168 127.929 26.468C128.181 26.756 128.541 26.9 129.009 26.9C129.117 26.9 129.213 26.9 129.297 26.9C129.381 26.888 129.465 26.876 129.549 26.864C129.693 26.852 129.795 26.894 129.855 26.99C129.915 27.074 129.945 27.254 129.945 27.53C129.945 27.782 129.891 27.98 129.783 28.124C129.675 28.256 129.501 28.34 129.261 28.376C129.153 28.388 129.039 28.394 128.919 28.394C128.799 28.406 128.685 28.412 128.577 28.412ZM132.189 28.376C131.901 28.376 131.679 28.298 131.523 28.142C131.367 27.974 131.289 27.746 131.289 27.458V20.258C131.289 19.958 131.367 19.73 131.523 19.574C131.679 19.418 131.895 19.34 132.171 19.34C132.459 19.34 132.675 19.418 132.819 19.574C132.975 19.73 133.053 19.958 133.053 20.258V21.734L132.855 21.338C133.095 20.702 133.467 20.204 133.971 19.844C134.475 19.484 135.081 19.304 135.789 19.304C136.521 19.304 137.115 19.478 137.571 19.826C138.027 20.174 138.339 20.708 138.507 21.428H138.255C138.483 20.768 138.873 20.252 139.425 19.88C139.977 19.496 140.619 19.304 141.351 19.304C142.023 19.304 142.575 19.436 143.007 19.7C143.439 19.952 143.763 20.342 143.979 20.87C144.195 21.386 144.303 22.04 144.303 22.832V27.458C144.303 27.746 144.219 27.974 144.051 28.142C143.895 28.298 143.673 28.376 143.385 28.376C143.097 28.376 142.875 28.298 142.719 28.142C142.563 27.974 142.485 27.746 142.485 27.458V22.922C142.485 22.178 142.353 21.632 142.089 21.284C141.837 20.936 141.417 20.762 140.829 20.762C140.169 20.762 139.647 20.99 139.263 21.446C138.879 21.902 138.687 22.532 138.687 23.336V27.458C138.687 27.746 138.609 27.974 138.453 28.142C138.297 28.298 138.075 28.376 137.787 28.376C137.499 28.376 137.271 28.298 137.103 28.142C136.947 27.974 136.869 27.746 136.869 27.458V22.922C136.869 22.178 136.743 21.632 136.491 21.284C136.239 20.936 135.819 20.762 135.231 20.762C134.571 20.762 134.049 20.99 133.665 21.446C133.293 21.902 133.107 22.532 133.107 23.336V27.458C133.107 28.07 132.801 28.376 132.189 28.376Z" fill="white"/>
</svg>
