<svg width="24" height="25" viewBox="0 0 24 25" fill="none" xmlns="http://www.w3.org/2000/svg">
<path d="M22.4234 9.368C22.3297 9.07974 22.1527 8.82568 21.9148 8.63783C21.6769 8.44998 21.3887 8.33673 21.0866 8.31237L15.5553 7.86612L13.4197 2.70143C13.3042 2.42001 13.1076 2.17929 12.855 2.00987C12.6023 1.84046 12.305 1.75 12.0008 1.75C11.6966 1.75 11.3992 1.84046 11.1466 2.00987C10.8939 2.17929 10.6974 2.42001 10.5819 2.70143L8.44812 7.86518L2.91406 8.31237C2.61141 8.33797 2.32305 8.45231 2.0851 8.64106C1.84714 8.82982 1.67019 9.0846 1.5764 9.37348C1.4826 9.66237 1.47615 9.97251 1.55784 10.265C1.63953 10.5576 1.80573 10.8195 2.03562 11.018L6.25437 14.6583L4.96906 20.1014C4.89717 20.3971 4.91477 20.7076 5.01962 20.9932C5.12448 21.2789 5.31185 21.527 5.55796 21.706C5.80407 21.885 6.09781 21.9869 6.40191 21.9986C6.70601 22.0104 7.00674 21.9315 7.26593 21.7721L12.0003 18.8583L16.7375 21.7721C16.9968 21.9296 17.2969 22.007 17.6001 21.9944C17.9032 21.9817 18.1958 21.8797 18.4411 21.701C18.6864 21.5224 18.8733 21.2752 18.9784 20.9906C19.0835 20.7059 19.102 20.3966 19.0316 20.1014L17.7416 14.6574L21.9603 11.0171C22.1921 10.8189 22.3598 10.5564 22.4422 10.2628C22.5247 9.96927 22.5181 9.65784 22.4234 9.368ZM20.9853 9.88081L16.4197 13.8183C16.3156 13.9081 16.2381 14.0247 16.1958 14.1555C16.1535 14.2862 16.1479 14.4261 16.1797 14.5599L17.5747 20.4474C17.5783 20.4555 17.5787 20.4647 17.5757 20.473C17.5727 20.4814 17.5667 20.4883 17.5587 20.4924C17.5419 20.5055 17.5372 20.5027 17.5231 20.4924L12.3931 17.3377C12.275 17.265 12.139 17.2266 12.0003 17.2266C11.8616 17.2266 11.7256 17.265 11.6075 17.3377L6.47749 20.4942C6.46343 20.5027 6.45968 20.5055 6.44187 20.4942C6.43396 20.4902 6.42789 20.4833 6.42493 20.4749C6.42196 20.4666 6.42232 20.4574 6.42593 20.4492L7.82093 14.5617C7.85273 14.428 7.84715 14.2881 7.80483 14.1573C7.7625 14.0266 7.68505 13.9099 7.58093 13.8202L3.01531 9.88268C3.00406 9.87331 2.99374 9.86487 3.00312 9.83581C3.01249 9.80675 3.01999 9.8105 3.03406 9.80862L9.02656 9.32487C9.164 9.31308 9.29554 9.26361 9.40669 9.1819C9.51783 9.10019 9.6043 8.98941 9.65656 8.86175L11.9647 3.27331C11.9722 3.25737 11.975 3.24987 11.9975 3.24987C12.02 3.24987 12.0228 3.25737 12.0303 3.27331L14.3441 8.86175C14.3968 8.98946 14.4838 9.10012 14.5955 9.18152C14.7072 9.26291 14.8391 9.31187 14.9769 9.323L20.9694 9.80675C20.9834 9.80675 20.9919 9.80675 21.0003 9.83393C21.0087 9.86112 21.0003 9.87143 20.9853 9.88081Z" fill="white"/>
</svg>
