<svg width="44" height="45" viewBox="0 0 44 45" fill="none" xmlns="http://www.w3.org/2000/svg">
<rect y="0.25" width="44" height="44" rx="4" fill="#0385FF"/>
<path d="M32.4231 19.3681C32.3293 19.0799 32.1523 18.8258 31.9144 18.6379C31.6765 18.4501 31.3883 18.3369 31.0862 18.3125L25.5549 17.8662L23.4193 12.7016C23.3038 12.4201 23.1072 12.1794 22.8546 12.01C22.6019 11.8406 22.3046 11.7501 22.0004 11.7501C21.6962 11.7501 21.3989 11.8406 21.1462 12.01C20.8936 12.1794 20.697 12.4201 20.5815 12.7016L18.4478 17.8653L12.9137 18.3125C12.611 18.3381 12.3227 18.4524 12.0847 18.6412C11.8468 18.8299 11.6698 19.0847 11.576 19.3736C11.4822 19.6625 11.4758 19.9726 11.5575 20.2652C11.6392 20.5577 11.8054 20.8196 12.0353 21.0181L16.254 24.6584L14.9687 30.1016C14.8968 30.3973 14.9144 30.7077 15.0193 30.9934C15.1241 31.2791 15.3115 31.5271 15.5576 31.7062C15.8037 31.8852 16.0974 31.987 16.4015 31.9988C16.7056 32.0105 17.0064 31.9317 17.2656 31.7722L21.9999 28.8584L26.7371 31.7722C26.9964 31.9298 27.2965 32.0071 27.5997 31.9945C27.9028 31.9818 28.1955 31.8798 28.4408 31.7012C28.686 31.5226 28.873 31.2754 28.978 30.9907C29.0831 30.7061 29.1016 30.3967 29.0312 30.1016L27.7412 24.6575L31.9599 21.0172C32.1917 20.819 32.3594 20.5565 32.4419 20.263C32.5243 19.9694 32.5178 19.658 32.4231 19.3681ZM30.9849 19.8809L26.4193 23.8184C26.3152 23.9082 26.2377 24.0248 26.1954 24.1556C26.1531 24.2864 26.1475 24.4263 26.1793 24.56L27.5743 30.4475C27.5779 30.4556 27.5783 30.4648 27.5753 30.4732C27.5724 30.4815 27.5663 30.4885 27.5584 30.4925C27.5415 30.5056 27.5368 30.5028 27.5228 30.4925L22.3928 27.3378C22.2746 27.2652 22.1386 27.2267 21.9999 27.2267C21.8612 27.2267 21.7253 27.2652 21.6071 27.3378L16.4771 30.4944C16.4631 30.5028 16.4593 30.5056 16.4415 30.4944C16.4336 30.4903 16.4275 30.4834 16.4246 30.475C16.4216 30.4667 16.422 30.4575 16.4256 30.4494L17.8206 24.5619C17.8524 24.4281 17.8468 24.2882 17.8045 24.1575C17.7621 24.0267 17.6847 23.91 17.5806 23.8203L13.0149 19.8828C13.0037 19.8734 12.9934 19.865 13.0028 19.8359C13.0121 19.8069 13.0196 19.8106 13.0337 19.8087L19.0262 19.325C19.1636 19.3132 19.2952 19.2637 19.4063 19.182C19.5175 19.1003 19.6039 18.9895 19.6562 18.8619L21.9643 13.2734C21.9718 13.2575 21.9746 13.25 21.9971 13.25C22.0196 13.25 22.0224 13.2575 22.0299 13.2734L24.3437 18.8619C24.3964 18.9896 24.4835 19.1002 24.5951 19.1816C24.7068 19.263 24.8388 19.312 24.9765 19.3231L30.969 19.8069C30.9831 19.8069 30.9915 19.8069 30.9999 19.8341C31.0084 19.8612 30.9999 19.8716 30.9849 19.8809Z" fill="white"/>
</svg>
