<svg width="296" height="42" viewBox="0 0 296 42" fill="none" xmlns="http://www.w3.org/2000/svg">
<path fill-rule="evenodd" clip-rule="evenodd" d="M287.5 21C287.5 21.1989 287.421 21.3897 287.28 21.5303C287.14 21.671 286.949 21.75 286.75 21.75L278.06 21.75L281.281 24.969C281.422 25.1098 281.501 25.3008 281.501 25.5C281.501 25.6992 281.422 25.8902 281.281 26.031C281.14 26.1718 280.949 26.2509 280.75 26.2509C280.551 26.2509 280.36 26.1718 280.219 26.031L275.719 21.531C275.649 21.4613 275.594 21.3786 275.556 21.2875C275.518 21.1963 275.499 21.0987 275.499 21C275.499 20.9014 275.518 20.8037 275.556 20.7126C275.594 20.6214 275.649 20.5387 275.719 20.469L280.219 15.969C280.36 15.8282 280.551 15.7491 280.75 15.7491C280.949 15.7491 281.14 15.8282 281.281 15.969C281.422 16.1098 281.501 16.3008 281.501 16.5C281.501 16.6992 281.422 16.8902 281.281 17.031L278.06 20.25L286.75 20.25C286.949 20.25 287.14 20.329 287.28 20.4697C287.421 20.6103 287.5 20.8011 287.5 21ZM291.25 31.5C291.449 31.5 291.64 31.421 291.78 31.2803C291.921 31.1397 292 30.9489 292 30.75L292 11.25C292 11.0511 291.921 10.8603 291.78 10.7197C291.64 10.579 291.449 10.5 291.25 10.5C291.051 10.5 290.86 10.579 290.72 10.7197C290.579 10.8603 290.5 11.0511 290.5 11.25L290.5 30.75C290.5 30.9489 290.579 31.1397 290.72 31.2803C290.86 31.421 291.051 31.5 291.25 31.5Z" fill="white"/>
</svg>
