<svg width="26" height="42" viewBox="0 0 26 42" fill="none" xmlns="http://www.w3.org/2000/svg">
<path fill-rule="evenodd" clip-rule="evenodd" d="M9.24939 21C9.24939 21.1989 9.32841 21.3897 9.46906 21.5303C9.60971 21.671 9.80048 21.75 9.99939 21.75L18.6889 21.75L15.4684 24.969C15.3276 25.1098 15.2484 25.3008 15.2484 25.5C15.2484 25.6992 15.3276 25.8902 15.4684 26.031C15.6092 26.1718 15.8002 26.2509 15.9994 26.2509C16.1986 26.2509 16.3896 26.1718 16.5304 26.031L21.0304 21.531C21.1002 21.4613 21.1556 21.3786 21.1935 21.2875C21.2313 21.1963 21.2507 21.0987 21.2507 21C21.2507 20.9014 21.2313 20.8037 21.1935 20.7126C21.1556 20.6214 21.1002 20.5387 21.0304 20.469L16.5304 15.969C16.3896 15.8282 16.1986 15.7491 15.9994 15.7491C15.8002 15.7491 15.6092 15.8282 15.4684 15.969C15.3276 16.1098 15.2484 16.3008 15.2484 16.5C15.2484 16.6992 15.3276 16.8902 15.4684 17.031L18.6889 20.25L9.99939 20.25C9.80048 20.25 9.60971 20.329 9.46906 20.4697C9.32841 20.6103 9.24939 20.8011 9.24939 21ZM5.49939 31.5C5.30048 31.5 5.10971 31.421 4.96906 31.2803C4.82841 31.1397 4.74939 30.9489 4.74939 30.75L4.74939 11.25C4.74939 11.0511 4.82841 10.8603 4.96906 10.7197C5.10971 10.579 5.30048 10.5 5.49939 10.5C5.6983 10.5 5.88907 10.579 6.02972 10.7197C6.17037 10.8603 6.24939 11.0511 6.24939 11.25L6.24939 30.75C6.24939 30.9489 6.17037 31.1397 6.02972 31.2803C5.88907 31.421 5.6983 31.5 5.49939 31.5Z" fill="white"/>
</svg>
